<svg width="20" height="20" viewBox="0 0 20 20" fill="none" xmlns="http://www.w3.org/2000/svg">
<path d="M12.2551 4.75664C12.3327 4.67923 12.3943 4.58727 12.4363 4.48603C12.4783 4.38479 12.4999 4.27625 12.4999 4.16664C12.4999 4.05703 12.4783 3.94849 12.4363 3.84725C12.3943 3.74601 12.3327 3.65405 12.2551 3.57664L10.1718 1.49331C10.0153 1.33705 9.80315 1.24936 9.58201 1.24951C9.36088 1.24967 9.14886 1.33766 8.9926 1.49414C8.83634 1.65062 8.74865 1.86276 8.7488 2.0839C8.74896 2.30503 8.83696 2.51705 8.99343 2.67331L9.66343 3.34164C8.43218 3.4036 7.24222 3.80574 6.2258 4.50339C5.20938 5.20103 4.40631 6.16685 3.90584 7.29351C3.40537 8.42017 3.22711 9.66353 3.39086 10.8854C3.55462 12.1073 4.05397 13.2599 4.83343 14.215C4.97453 14.3822 5.17574 14.4872 5.39361 14.5074C5.61148 14.5275 5.82854 14.4612 5.99791 14.3227C6.16728 14.1841 6.27538 13.9846 6.29887 13.767C6.32235 13.5495 6.25934 13.3315 6.12343 13.16C5.54459 12.4506 5.17164 11.5959 5.04524 10.6891C4.91885 9.78232 5.04386 8.85822 5.40666 8.0176C5.76946 7.17698 6.3561 6.45211 7.10262 5.92204C7.84914 5.39198 8.72687 5.07706 9.6401 5.01164L8.99177 5.66164C8.91218 5.73851 8.84869 5.83047 8.80502 5.93214C8.76134 6.03381 8.73835 6.14316 8.73739 6.25381C8.73643 6.36446 8.75752 6.47419 8.79942 6.5766C8.84132 6.67902 8.90319 6.77206 8.98144 6.8503C9.05968 6.92855 9.15273 6.99043 9.25514 7.03233C9.35755 7.07423 9.46729 7.09531 9.57794 7.09435C9.68859 7.09339 9.79793 7.0704 9.8996 7.02673C10.0013 6.98305 10.0932 6.91957 10.1701 6.83998L12.2551 4.75664ZM13.6568 5.37998C13.5774 5.45537 13.5137 5.54565 13.4692 5.64568C13.4248 5.7457 13.4005 5.8535 13.3977 5.96293C13.3949 6.07235 13.4137 6.18125 13.453 6.28341C13.4923 6.38557 13.5513 6.47898 13.6268 6.55831C14.2791 7.24537 14.7229 8.10364 14.9063 9.03316C15.0897 9.96267 15.0052 10.9252 14.6628 11.8085C14.3203 12.6919 13.7339 13.4598 12.9718 14.0227C12.2098 14.5857 11.3034 14.9206 10.3584 14.9883L11.0068 14.3383C11.0864 14.2614 11.1498 14.1695 11.1935 14.0678C11.2372 13.9661 11.2602 13.8568 11.2611 13.7461C11.2621 13.6355 11.241 13.5258 11.1991 13.4233C11.1572 13.3209 11.0953 13.2279 11.0171 13.1496C10.9389 13.0714 10.8458 13.0095 10.7434 12.9676C10.641 12.9257 10.5312 12.9046 10.4206 12.9056C10.31 12.9066 10.2006 12.9296 10.0989 12.9732C9.99726 13.0169 9.90531 13.0804 9.82843 13.16L7.7451 15.2433C7.6675 15.3207 7.60592 15.4127 7.56391 15.5139C7.5219 15.6152 7.50028 15.7237 7.50028 15.8333C7.50028 15.9429 7.5219 16.0515 7.56391 16.1527C7.60592 16.2539 7.6675 16.3459 7.7451 16.4233L9.82843 18.5066C9.98491 18.6629 10.1971 18.7506 10.4182 18.7504C10.6393 18.7503 10.8513 18.6623 11.0076 18.5058C11.1639 18.3493 11.2516 18.1372 11.2514 17.9161C11.2512 17.6949 11.1632 17.4829 11.0068 17.3266L10.3368 16.6583C11.6105 16.5943 12.8391 16.1662 13.8768 15.425C14.9146 14.6837 15.718 13.6604 16.1917 12.4763C16.6654 11.2922 16.7895 9.99716 16.5493 8.74467C16.3092 7.49218 15.7148 6.33486 14.8368 5.40998C14.7614 5.33037 14.671 5.26643 14.5708 5.22183C14.4706 5.17722 14.3626 5.15283 14.253 5.15004C14.1434 5.14725 14.0343 5.16613 13.932 5.20559C13.8297 5.24504 13.7361 5.30431 13.6568 5.37998Z" fill="#2E2E2E"/>
</svg>
