<svg width="20" height="21" viewBox="0 0 20 21" xmlns="http://www.w3.org/2000/svg">
<path fill-rule="evenodd" clip-rule="evenodd" d="M0.982872 1.19777C1.40096 1.60772 1.54356 1.63707 2.04026 1.4152C3.01158 0.98125 4.61728 1.09577 5.31698 1.64894L5.93446 2.13689L3.73336 4.2837C1.40655 6.55299 1.30212 6.59264 0.735987 5.42278C0.286905 4.49488 0.280388 3.62697 0.716431 2.80719C1.03648 2.20537 1.02517 2.14394 0.493355 1.59964C-0.42037 0.664426 0.0473328 0.280428 0.982872 1.19777ZM10.0098 6.14826C13.6856 9.7571 13.758 9.84606 13.4633 10.3859C13.2223 10.8276 13.2158 11.0527 13.431 11.5159C14.2004 13.1717 13.1587 12.4919 9.6258 9.03241C6.10606 5.58596 6.00376 5.50652 5.08512 5.50652H4.14532V6.48478C4.14532 7.45781 4.14945 7.46303 4.92137 7.46303C5.66031 7.46303 5.69728 7.49916 5.69728 8.22385C5.69728 8.95871 5.72575 8.98467 6.53239 8.98467C7.56051 8.98467 12.3738 13.4379 11.8747 13.9273C11.6908 14.1077 11.4913 14.1166 11.1893 13.9581C10.955 13.8352 10.3965 13.7942 9.94851 13.8671C9.13895 13.9987 9.11021 13.9764 5.47753 10.4046L1.82131 6.80969L4.03838 4.63574L6.25531 2.46193L10.0098 6.14826ZM9.33076 9.39541C11.5613 11.5857 12.7884 12.9446 12.6845 13.1094C12.5765 13.2808 11.6656 12.5421 10.0117 10.9421C7.8513 8.85215 7.41565 8.52476 6.87705 8.58672C6.29881 8.65324 6.2464 8.59715 6.18268 7.84337C6.11763 7.07251 6.07254 7.02816 5.3513 7.02816C4.68579 7.02816 4.58882 6.95916 4.58882 6.48478C4.58882 5.11705 5.61614 5.74769 9.33076 9.39541ZM19.4428 10.2366C19.4428 10.4497 10.0697 19.6368 9.85234 19.6368C9.2721 19.6368 10.2082 18.5717 14.3003 14.5757C18.4284 10.5447 19.4428 9.68862 19.4428 10.2366ZM16.1172 10.8902C16.1172 11.2846 10.6094 16.4227 10.353 16.2673C10.1723 16.1578 10.9871 15.215 12.8196 13.4137C15.259 11.0162 16.1172 10.3593 16.1172 10.8902ZM15.4521 12.7405C15.4521 13.2103 12.4243 16.0203 12.2375 15.7238C12.1343 15.5601 12.6411 14.9002 13.5901 13.9625C15.1203 12.4506 15.4521 12.2327 15.4521 12.7405ZM16.9653 14.457L17.4351 15.1803L16.1367 16.4574L14.8382 17.7346L14.1476 17.3344C13.2562 16.8181 13.2137 16.927 14.9762 15.2121L16.4954 13.7338L16.9653 14.457ZM17.887 17.785C18.5455 18.4389 19.0397 19.0008 18.9853 19.0336C18.9309 19.0664 18.5832 19.3613 18.2126 19.689L17.5387 20.2845L16.3821 19.1362L15.2255 17.9877L15.9575 17.292L16.6896 16.5963L17.887 17.785ZM16.9264 18.6523C16.8007 18.9733 17.3067 19.6368 17.6772 19.6368C17.9547 19.6368 18.2947 18.9314 18.1751 18.6042C18.0367 18.226 17.0787 18.263 16.9264 18.6523Z" />
</svg>
