<svg width="20" height="20" viewBox="0 0 20 20" fill="none" xmlns="http://www.w3.org/2000/svg">
<path d="M5.99999 15.6888C4.89501 15.6888 4.01001 16.5664 4.01001 17.65C4.01001 18.7335 4.89501 19.6111 5.99999 19.6111C7.10497 19.6111 8 18.7335 8 17.65C8 16.5664 7.10497 15.6888 5.99999 15.6888Z" fill="white"/>
<path d="M7.10001 10.7861H14.55C15.3 10.7861 15.955 10.3792 16.3 9.77612L19.875 3.41231C19.955 3.27502 20 3.11323 20 2.94165C20 2.39744 19.55 1.96112 19 1.96112H4.215L3.26498 0H0V1.96112H2.00001L5.595 9.39857L4.245 11.8009C4.08998 12.0853 3.99998 12.404 3.99998 12.7472C3.99998 13.8307 4.89501 14.7083 6 14.7083H18V12.7471H6.42501C6.285 12.7471 6.17503 12.6393 6.17503 12.502C6.17503 12.4579 6.18501 12.4187 6.20503 12.3843L7.10001 10.7861Z" fill="white"/>
<path d="M16 15.6888C14.895 15.6888 14.01 16.5664 14.01 17.65C14.01 18.7335 14.895 19.6111 16 19.6111C17.105 19.6111 18 18.7335 18 17.65C18 16.5665 17.105 15.6888 16 15.6888Z" fill="white"/>
</svg>
