<svg width="20" height="20" viewBox="0 0 20 20" fill="none" xmlns="http://www.w3.org/2000/svg">
<path d="M5.99999 15.6888C4.89501 15.6888 4.01001 16.5664 4.01001 17.65C4.01001 18.7335 4.89501 19.6111 5.99999 19.6111C7.10497 19.6111 8 18.7335 8 17.65C8 16.5664 7.10497 15.6888 5.99999 15.6888Z" fill="white"/>
<path d="M7.10001 10.7861H14.55C15.3 10.7861 15.955 10.3792 16.3 9.77612L19.875 3.41231C19.955 3.27502 20 3.11323 20 2.94165C20 2.39745 18.9803 2.25182 18.8466 2.49861L18.5 3L15 9H7.5L4.215 1.96112L3.26498 0H0V1.96112H2.00001L5.595 9.39857L4.245 11.8009C4.08998 12.0853 3.99998 12.404 3.99998 12.7472C3.99998 13.8307 4.89501 14.7083 6 14.7083H18V12.7471H6.42501C6.285 12.7471 6.17503 12.6393 6.17503 12.502C6.17503 12.4579 6.18501 12.4187 6.20503 12.3843L7.10001 10.7861Z" fill="white"/>
<path d="M16 15.6888C14.895 15.6888 14.01 16.5664 14.01 17.65C14.01 18.7335 14.895 19.6111 16 19.6111C17.105 19.6111 18 18.7335 18 17.65C18 16.5665 17.105 15.6888 16 15.6888Z" fill="white"/>
<path d="M14.6143 3.65125C14.7109 3.74793 14.7651 3.87898 14.7651 4.01562C14.7651 4.15226 14.7109 4.28332 14.6143 4.38L11.6925 7.30187C11.5958 7.39843 11.4647 7.45267 11.3281 7.45267C11.1914 7.45267 11.0604 7.39843 10.9637 7.30187L8.04184 4.38C7.95081 4.28219 7.90124 4.15291 7.90355 4.01931C7.90585 3.88572 7.95986 3.75822 8.05422 3.66362C8.14882 3.56927 8.27631 3.51526 8.40991 3.51295C8.5435 3.51064 8.67279 3.56021 8.77059 3.65125L10.8125 5.69312V0.578121C10.8125 0.441369 10.8668 0.310218 10.9635 0.213519C11.0602 0.116821 11.1913 0.0624959 11.3281 0.0624959C11.4648 0.0624959 11.596 0.116821 11.6927 0.213519C11.7894 0.310218 11.8437 0.441369 11.8437 0.578121V5.69312L13.8856 3.65125C13.9823 3.55469 14.1133 3.50045 14.25 3.50045C14.3866 3.50045 14.5177 3.55469 14.6143 3.65125Z" fill="white"/>
</svg>
