<svg width="20" height="20" viewBox="0 0 20 20" fill="none" xmlns="http://www.w3.org/2000/svg">
<g clip-path="url(#clip0_1225_4)">
<path d="M9.415 1.82919C9.74385 1.70615 10.1032 1.69011 10.4417 1.78336L10.585 1.82919L16.4183 4.01669C16.7141 4.1276 16.9723 4.32028 17.1627 4.57228C17.3532 4.82428 17.4682 5.12521 17.4942 5.44003L17.5 5.57753V10.0467C17.5 11.397 17.1354 12.7223 16.4447 13.8827C15.754 15.043 14.7628 15.9954 13.5758 16.6392L13.3542 16.755L10.5592 18.1525C10.4053 18.2294 10.2372 18.2736 10.0654 18.2825C9.89361 18.2914 9.72184 18.2647 9.56083 18.2042L9.44083 18.1525L6.64583 16.755C5.43801 16.1511 4.41565 15.2323 3.68667 14.0955C2.95769 12.9588 2.54915 11.6463 2.50417 10.2967L2.5 10.0467V5.57753C2.5 5.2618 2.58969 4.95257 2.75861 4.68584C2.92753 4.4191 3.16875 4.20583 3.45417 4.07086L3.58167 4.01669L9.415 1.82919ZM10 3.39003L4.16667 5.57753V10.0467C4.16669 11.0925 4.44788 12.1191 4.9808 13.019C5.51371 13.9189 6.27876 14.6589 7.19583 15.1617L7.39167 15.2642L10 16.5684L12.6083 15.2642C13.5439 14.7965 14.3366 14.0858 14.9032 13.2066C15.4699 12.3274 15.7897 11.3119 15.8292 10.2667L15.8333 10.0467V5.57753L10 3.39003ZM12.8608 7.19086C13.0108 7.0414 13.212 6.95463 13.4237 6.94817C13.6353 6.94171 13.8414 7.01604 14.0002 7.15607C14.159 7.2961 14.2586 7.49132 14.2787 7.70209C14.2987 7.91286 14.2378 8.12337 14.1083 8.29086L14.0392 8.36919L9.6775 12.7317C9.51862 12.8905 9.30694 12.9855 9.08264 12.9986C8.85835 13.0116 8.63707 12.9419 8.46083 12.8025L8.38083 12.7317L6.3775 10.7284C6.22645 10.5787 6.13831 10.3771 6.1311 10.1646C6.12389 9.95209 6.19816 9.74489 6.33872 9.58538C6.47928 9.42586 6.67549 9.32611 6.88719 9.30652C7.09889 9.28694 7.31007 9.34901 7.4775 9.48003L7.55583 9.54919L9.02917 11.0225L12.8608 7.19086Z" fill="#48943C"/>
</g>
<defs>
<clipPath id="clip0_1225_4">
<rect width="20" height="20" fill="white"/>
</clipPath>
</defs>
</svg>
