<svg width="21" height="21" viewBox="0 0 21 21" fill="none" xmlns="http://www.w3.org/2000/svg">
<path fill-rule="evenodd" clip-rule="evenodd" d="M7.23194 0.984094C7.21957 1.15491 7.20945 1.60528 7.20945 1.98492V2.67524H10.2888H13.3681V1.67441V0.673584H10.3113H7.25443L7.23194 0.984094ZM13.7141 1.67441V2.67524H14.5272H15.3403V1.67441V0.673584H14.5272H13.7141V1.67441ZM6.334 1.47178C4.18771 2.75768 2.67823 5.22548 2.67693 7.45036V7.5267H3.36555H4.05407L4.077 7.31466C4.26548 5.56533 5.18098 3.92338 6.47421 3.01535L6.69046 2.86344V2.07389C6.69046 1.63955 6.67878 1.28536 6.66451 1.2868C6.65024 1.28816 6.50155 1.37145 6.334 1.47178ZM3.93401 2.68499C0.380399 5.35872 -0.939826 9.99806 0.693437 14.0729C3.11773 20.1217 10.8187 22.2196 16.099 18.2698C21.2307 14.4313 21.3262 6.78795 16.2918 2.83435L15.9112 2.53546L15.8939 2.79109C15.8666 3.1949 15.8621 3.19728 15.0886 3.21806L14.458 3.23502L14.6261 3.33188C16.1588 4.21532 17.5838 6.00459 18.1963 7.81507C20.0412 13.268 15.8897 18.9259 10.0435 18.9259C3.8598 18.9259 -0.327763 12.7816 2.05492 7.2044C2.13078 7.02679 2.20257 6.78549 2.22645 6.62765C2.44468 5.18578 3.17732 3.62712 4.11549 2.60891C4.28217 2.42808 4.26721 2.43436 3.93401 2.68499Z" fill="#354053"/>
</svg>
