<svg width="20" height="20" viewBox="0 0 20 20" fill="none" xmlns="http://www.w3.org/2000/svg">
<g clip-path="url(#clip0)">
<path d="M15.8063 12.3893C15.3968 11.963 14.903 11.735 14.3796 11.735C13.8604 11.735 13.3623 11.9588 12.9359 12.3851L11.602 13.7147C11.4923 13.6557 11.3825 13.6008 11.277 13.5459C11.1251 13.4699 10.9815 13.3982 10.8591 13.3222C9.60967 12.5286 8.47418 11.4944 7.38513 10.1563C6.85749 9.48939 6.50291 8.92798 6.24542 8.35812C6.59156 8.04154 6.91236 7.71229 7.22473 7.3957C7.34292 7.27751 7.46111 7.1551 7.5793 7.03691C8.46574 6.15047 8.46574 5.00232 7.5793 4.11588L6.42693 2.96351C6.29608 2.83265 6.161 2.69758 6.03437 2.5625C5.7811 2.30079 5.51517 2.03064 5.24079 1.77737C4.83134 1.37214 4.34169 1.15686 3.82671 1.15686C3.31173 1.15686 2.81364 1.37214 2.39153 1.77737C2.38731 1.78159 2.38731 1.78159 2.38308 1.78581L0.947898 3.23366C0.407592 3.77397 0.0994492 4.43246 0.031911 5.19649C-0.0693963 6.42906 0.293621 7.57721 0.572216 8.32857C1.25604 10.1732 2.27756 11.8828 3.80139 13.7147C5.65024 15.9224 7.87478 17.6657 10.4159 18.8941C11.3868 19.3542 12.6827 19.8987 14.1305 19.9916C14.2192 19.9958 14.312 20 14.3964 20C15.3715 20 16.1904 19.6497 16.832 18.9532C16.8363 18.9447 16.8447 18.9405 16.8489 18.9321C17.0684 18.6661 17.3217 18.4255 17.5876 18.168C17.7691 17.995 17.9549 17.8135 18.1364 17.6235C18.5543 17.1887 18.7738 16.6822 18.7738 16.163C18.7738 15.6396 18.55 15.1373 18.1237 14.7152L15.8063 12.3893ZM17.3175 16.8342C17.3132 16.8342 17.3132 16.8384 17.3175 16.8342C17.1528 17.0115 16.984 17.1719 16.8025 17.3491C16.5281 17.6109 16.2495 17.8852 15.9878 18.1934C15.5615 18.6493 15.0592 18.8645 14.4007 18.8645C14.3373 18.8645 14.2698 18.8645 14.2065 18.8603C12.9528 18.7801 11.7878 18.2905 10.914 17.8726C8.52484 16.716 6.42693 15.074 4.6836 12.9929C3.2442 11.258 2.28178 9.65401 1.64439 7.93179C1.25182 6.88072 1.1083 6.06182 1.17162 5.28936C1.21383 4.79548 1.40378 4.38603 1.75413 4.03568L3.19354 2.59627C3.40038 2.4021 3.61988 2.29657 3.83516 2.29657C4.10109 2.29657 4.31636 2.45697 4.45144 2.59205C4.45566 2.59627 4.45988 2.60049 4.4641 2.60471C4.72159 2.84532 4.96642 3.09436 5.22391 3.3603C5.35476 3.49537 5.48984 3.63045 5.62492 3.76975L6.77729 4.92212C7.22473 5.36956 7.22473 5.78323 6.77729 6.23067C6.65487 6.35308 6.53668 6.47549 6.41427 6.59369C6.05969 6.9567 5.722 7.2944 5.35476 7.62364C5.34632 7.63209 5.33788 7.63631 5.33366 7.64475C4.97064 8.00777 5.03818 8.36234 5.11416 8.60295C5.11838 8.61561 5.1226 8.62828 5.12682 8.64094C5.42652 9.36697 5.84864 10.0508 6.49025 10.8655L6.49447 10.8697C7.6595 12.3049 8.88786 13.4235 10.2428 14.2804C10.4159 14.3901 10.5932 14.4788 10.762 14.5632C10.914 14.6392 11.0575 14.7109 11.1799 14.7869C11.1968 14.7954 11.2137 14.808 11.2306 14.8165C11.3741 14.8882 11.5092 14.922 11.6485 14.922C11.9988 14.922 12.2183 14.7025 12.2901 14.6307L13.7337 13.1871C13.8772 13.0436 14.1052 12.8705 14.3711 12.8705C14.6328 12.8705 14.8481 13.0351 14.979 13.1787C14.9832 13.1829 14.9832 13.1829 14.9874 13.1871L17.3132 15.513C17.748 15.9435 17.748 16.3867 17.3175 16.8342Z" fill="black"/>
<path d="M10.8085 4.75753C11.9144 4.94326 12.919 5.46668 13.7211 6.26869C14.5231 7.07071 15.0423 8.07534 15.2322 9.18128C15.2787 9.45987 15.5193 9.65405 15.7936 9.65405C15.8274 9.65405 15.857 9.64982 15.8907 9.6456C16.2031 9.59495 16.4099 9.29947 16.3593 8.98711C16.1313 7.64901 15.4982 6.4291 14.5315 5.46246C13.5649 4.49582 12.345 3.86265 11.0069 3.6347C10.6945 3.58405 10.4032 3.79089 10.3484 4.09903C10.2935 4.40717 10.4961 4.70687 10.8085 4.75753Z" fill="black"/>
<path d="M19.9768 8.82242C19.6011 6.61899 18.5627 4.61395 16.9671 3.01836C15.3715 1.42277 13.3665 0.384369 11.163 0.00868773C10.8549 -0.0461871 10.5636 0.16487 10.5088 0.473013C10.4581 0.785377 10.665 1.07664 10.9773 1.13151C12.9444 1.46498 14.7383 2.39785 16.1651 3.82037C17.5918 5.24712 18.5205 7.0411 18.854 9.00815C18.9004 9.28675 19.141 9.48092 19.4154 9.48092C19.4491 9.48092 19.4787 9.4767 19.5125 9.47248C19.8206 9.42605 20.0317 9.13057 19.9768 8.82242Z" fill="black"/>
</g>
<defs>
<clipPath id="clip0">
<rect width="20" height="20" fill="white"/>
</clipPath>
</defs>
</svg>
