<svg width="25" height="25" viewBox="0 0 25 25" fill="none" xmlns="http://www.w3.org/2000/svg">
<path d="M23.1492 0.78357C22.8405 0.806233 22.5374 0.879312 22.2519 0.999955H22.248C21.9739 1.1096 20.6707 1.6627 18.6895 2.50107L11.5898 5.51786C6.49537 7.68172 1.48749 9.81258 1.48749 9.81258L1.54712 9.78929C1.54712 9.78929 1.20184 9.90379 0.841184 10.1532C0.618371 10.2962 0.42664 10.4834 0.277593 10.7034C0.100629 10.9653 -0.0417111 11.3661 0.0111857 11.7804C0.097744 12.481 0.547847 12.9012 0.870998 13.1331C1.198 13.3679 1.50961 13.4776 1.50961 13.4776H1.5173L6.21357 15.0738C6.4242 15.7559 7.64467 19.8042 7.93801 20.7367C8.11112 21.2936 8.27943 21.642 8.49006 21.9079C8.592 22.0437 8.71126 22.1572 8.85456 22.2485C8.92906 22.2922 9.00849 22.3267 9.09116 22.3513L9.04307 22.3397C9.05749 22.3436 9.06904 22.3552 9.07962 22.3591C9.11809 22.3698 9.14405 22.3736 9.1931 22.3814C9.93654 22.6085 10.5338 22.1427 10.5338 22.1427L10.5675 22.1155L13.3402 19.5684L17.9874 23.1654L18.0932 23.211C19.0617 23.6399 20.0427 23.4012 20.5611 22.9801C21.0833 22.5561 21.2863 22.0136 21.2863 22.0136L21.3199 21.9263L24.9111 3.36467C25.0131 2.90667 25.0391 2.47778 24.9265 2.06151C24.8105 1.64021 24.5426 1.27787 24.1754 1.04556C23.8671 0.856457 23.5096 0.76518 23.1492 0.78357ZM23.0521 2.77277C23.0482 2.8339 23.0597 2.82711 23.0328 2.94452V2.95519L19.4753 21.3237C19.4599 21.3499 19.4339 21.4072 19.3627 21.4644C19.2877 21.5246 19.2281 21.5624 18.9155 21.4373L13.2315 17.0406L9.79805 20.1981L10.5194 15.5502L19.8061 6.81714C20.1889 6.45812 20.061 6.38243 20.061 6.38243C20.0879 5.9419 19.483 6.25338 19.483 6.25338L7.77258 13.5727L7.76874 13.5532L2.15591 11.6465V11.6426L2.14148 11.6397C2.15132 11.6364 2.16096 11.6325 2.17034 11.6281L2.20111 11.6126L2.23093 11.6019C2.23093 11.6019 7.24265 9.47102 12.3371 7.30716C14.8877 6.22329 17.4575 5.13166 19.4339 4.28941C20.6061 3.79163 21.7794 3.29675 22.954 2.80479C23.0328 2.77374 22.9953 2.77277 23.0521 2.77277Z" fill="#354053"/>
</svg>
