<svg width="25" height="25" viewBox="0 0 25 25" fill="none" xmlns="http://www.w3.org/2000/svg">
<path d="M15.8333 0V18.3333C15.8333 19.4871 15.4912 20.6149 14.8502 21.5742C14.2092 22.5334 13.2982 23.2811 12.2323 23.7226C11.1664 24.1641 9.99349 24.2797 8.86194 24.0546C7.73038 23.8295 6.69098 23.2739 5.87517 22.4581C5.05937 21.6423 4.50379 20.6029 4.27871 19.4714C4.05363 18.3398 4.16915 17.1669 4.61066 16.101C5.05218 15.0351 5.79985 14.1241 6.75914 13.4831C7.71842 12.8421 8.84624 12.5 9.99996 12.5M23.3333 9.16667C21.3442 9.16667 19.4365 8.37649 18.03 6.96997C16.6235 5.56344 15.8333 3.65579 15.8333 1.66667" stroke="#354053"/>
</svg>
