<svg width="22" height="21" viewBox="0 0 22 21" fill="none" xmlns="http://www.w3.org/2000/svg">
<path fill-rule="evenodd" clip-rule="evenodd" d="M10.4555 0.717434C10.1621 0.806233 9.84265 1.06379 9.68615 1.33748L9.53574 1.60041L9.52282 7.64164L9.5099 13.6829L9.2838 13.9281C8.17964 15.1257 8.89816 17.0779 10.5234 17.2958C12.4517 17.5544 13.6597 15.3343 12.3613 13.9181L12.1441 13.6812V12.1943V10.7074H13.3386H14.5331V10.1099V9.51229H13.3386H12.1441V8.8191V8.12592H13.3386H14.5331V7.50444V6.88296H13.3386H12.1441V6.18978V5.49659H13.3873H14.6306V4.89902V4.30144H13.3901H12.1497L12.1347 2.97483C12.118 1.49524 12.0991 1.4013 11.7506 1.05877C11.4274 0.741217 10.8658 0.593138 10.4555 0.717434ZM11.1946 1.386C11.511 1.5777 11.5103 1.5722 11.5103 3.96202V6.11807H10.8277H10.1452V3.93656C10.1452 1.80681 10.1476 1.75124 10.2472 1.59336C10.4395 1.28812 10.8756 1.19274 11.1946 1.386ZM1.11404 13.9088C0.821267 13.9612 0.423431 14.0884 0.184901 14.2059L0 14.2969L0.00731285 14.8925C0.0113351 15.2201 0.0241332 15.488 0.0358343 15.488C0.0474134 15.488 0.145532 15.4437 0.253888 15.3894C1.07906 14.9767 2.04305 15.0052 3.79809 15.494C5.68329 16.0193 6.51712 16.0573 7.4337 15.6598L7.70745 15.5411V14.9255V14.3098L7.42711 14.441C6.56965 14.8423 5.76069 14.8135 3.95337 14.3177C2.4649 13.9094 1.71457 13.8013 1.11404 13.9088ZM19.5304 13.8924C19.0773 13.9598 18.503 14.0929 17.6938 14.318C15.9372 14.8066 15.1337 14.8389 14.2531 14.4571C14.1055 14.393 13.9764 14.3407 13.9663 14.3407C13.9563 14.3407 13.948 14.6105 13.948 14.9404V15.5403L14.204 15.6568C14.653 15.8612 15.1096 15.9337 15.7706 15.9056C16.4131 15.8782 16.6225 15.8368 17.8818 15.4867C19.6068 15.0072 20.4392 14.9783 21.3347 15.3667C21.4886 15.4334 21.6173 15.488 21.6207 15.4881C21.624 15.4881 21.6201 15.2106 21.6119 14.8715L21.5972 14.2546L21.3682 14.1589C20.8383 13.9373 20.0228 13.819 19.5304 13.8924ZM2.05195 18.4464V19.0735L2.2104 19.0737C2.54144 19.0743 2.73012 19.1688 3.12735 19.5331C4.24358 20.5567 5.76118 20.5314 6.88399 19.4707C7.50207 18.8869 8.29774 18.8978 8.94557 19.4988C10.062 20.535 11.5934 20.535 12.7099 19.4988C13.3745 18.8821 14.1525 18.8898 14.8235 19.5197C15.9042 20.5344 17.4471 20.54 18.5249 19.5331C18.913 19.1708 19.1061 19.0743 19.4451 19.0737L19.6035 19.0735V18.4454V17.8174L19.2918 17.8486C18.6654 17.9115 18.2509 18.1078 17.7488 18.5794C17.0649 19.2214 16.3148 19.2189 15.6094 18.5721C14.5186 17.5718 12.9666 17.5602 11.9313 18.5445C11.2212 19.2196 10.4523 19.2319 9.75721 18.5794C8.66852 17.5571 7.11716 17.5634 6.00337 18.5945C5.59663 18.971 5.465 19.0249 4.95247 19.0254C4.45237 19.0258 4.32244 18.9722 3.93411 18.6062C3.40342 18.1058 3.02106 17.9211 2.37409 17.8532L2.05195 17.8194V18.4464Z" fill="#354053"/>
</svg>
