<svg width="16" height="21" viewBox="0 0 16 21" fill="none" xmlns="http://www.w3.org/2000/svg">
<path fill-rule="evenodd" clip-rule="evenodd" d="M4.10163 0.987624C-3.07277 2.46957 -0.239575 6.4528 7.98889 6.4528C16.2679 6.4528 19.057 2.4487 11.8006 0.980697C9.76306 0.568436 6.11505 0.571713 4.10163 0.987624ZM10.5584 2.46602C13.3217 3.41092 11.1307 5.22762 7.51155 4.99238C2.49376 4.66624 3.33541 1.93375 8.3867 2.15139C9.17431 2.18537 10.1515 2.32691 10.5584 2.46602ZM0.033272 5.09666C0.033272 8.12168 13.2859 8.62475 15.6409 5.68912C16.1776 5.01999 15.9984 4.84438 15.2913 5.3466C12.2346 7.5178 3.74315 7.5178 0.686463 5.3466C0.256953 5.04162 0.033272 4.95596 0.033272 5.09666ZM0.033272 11.4116C0.033272 16.5254 0.0441556 16.7135 0.363018 17.111C0.963033 17.859 0.98795 17.6625 0.98795 12.1688V6.81554L0.510611 6.46946L0.033272 6.12347V11.4116ZM15.4274 6.50437L14.9898 6.84662V12.1973C14.9898 17.8065 15.0033 17.9037 15.6586 17.0431C15.9282 16.689 15.9458 16.2875 15.9069 11.412L15.865 6.16223L15.4274 6.50437ZM1.78348 12.6702V18.1156L2.28459 18.2869C2.56011 18.3811 2.81072 18.4582 2.84146 18.4582C2.8722 18.4582 2.89731 16.0378 2.89731 13.0796V7.701L2.42779 7.46295C2.16965 7.33199 1.91905 7.2249 1.87093 7.2249C1.82282 7.2249 1.78348 9.67534 1.78348 12.6702ZM13.5181 7.47015L13.0805 7.70287V13.0805C13.0805 16.0382 13.1056 18.4582 13.1363 18.4582C13.1671 18.4582 13.4177 18.3811 13.6932 18.2869L14.1943 18.1156V12.6702C14.1943 9.67534 14.1406 7.2277 14.075 7.23117C14.0094 7.23454 13.7588 7.3421 13.5181 7.47015ZM3.69284 13.2919V18.7348L4.17018 18.8035L4.64752 18.8722V13.4552C4.64752 8.65967 4.61868 8.02751 4.39586 7.94364C3.67413 7.67207 3.69284 7.52997 3.69284 13.2919ZM11.5291 7.95225C11.3754 8.0131 11.3303 9.26111 11.3303 13.4516V18.8722L11.8076 18.8035L12.2849 18.7348V13.2919C12.2849 7.43889 12.3137 7.64193 11.5291 7.95225ZM5.60219 13.6216V19.0823H6.07953H6.55687V13.6216V8.161H6.07953H5.60219V13.6216ZM9.4209 13.6216V19.0823H9.89824H10.3756V13.6216V8.161H9.89824H9.4209V13.6216ZM7.51155 13.7386V19.1602H7.98889H8.46623V13.7386V8.31705H7.98889H7.51155V13.7386ZM0.033272 17.7271C0.033272 20.7392 13.2793 21.2704 15.6203 18.3523C16.1471 17.6955 16.0279 17.4438 15.4093 17.9064C12.3984 20.1583 3.57933 20.1583 0.568465 17.9064C0.192894 17.6256 0.033272 17.5721 0.033272 17.7271Z" fill="#354053"/>
</svg>
