<svg width="252" height="361" viewBox="0 0 252 361" fill="none" xmlns="http://www.w3.org/2000/svg">
<path fill-rule="evenodd" clip-rule="evenodd" d="M38.387 8.296C32.129 12.858 26.389 17.698 25.632 19.05C23.622 22.642 28.792 41.425 34.581 51.56L39.535 60.236L46.934 54.285C51.004 51.011 57.676 45.644 61.762 42.358C68.78 36.713 73.472 36.02 72.342 40.796C72.062 41.98 57.643 54.473 40.3 68.558C-0.553989 101.736 1.96001 97.94 1.29601 127.465C0.695006 154.213 2.108 159.569 10.979 164.156C18.99 168.298 19.333 170.346 19.333 213.979C19.333 252.862 18.241 263.333 14.184 263.333C13.48 263.333 10.226 265.859 6.95201 268.947L1.00001 274.56V311.076C1.00001 363.341 -3.60899 360 68.5 360C140.248 360 136 363.155 136 309.863V274.56L130.048 268.947C126.774 265.859 123.52 263.333 122.816 263.333C118.763 263.333 117.667 252.865 117.667 214.167C117.667 172.143 118.505 166.017 124.513 164.11C126.167 163.585 129.428 160.888 131.76 158.116L136 153.078V100.952C136 49.455 135.954 48.758 132.201 43.189C124.872 32.314 106.92 25.923 94.552 29.786C88.676 31.621 88.355 31.495 83.5 25.435C74.725 14.481 56.595 0 51.655 0C50.616 0 44.645 3.733 38.387 8.296ZM142.667 109.167V123.333H164.456C184.309 123.333 186.195 123.592 185.685 126.25C185.193 128.816 182.572 129.223 163.896 129.633L142.667 130.1L142.66 142.133C142.653 155.593 139.589 162.635 131.496 167.788C115.937 177.694 118.776 178.333 178.296 178.333C224.039 178.333 232.572 178.711 234.317 180.814C237.609 184.781 235.392 184.963 178.5 185.412L125.167 185.833L124.694 218.333C124.145 256.083 124.217 256.561 131.059 260.603C139.194 265.409 142.653 272.551 142.66 284.557L142.667 294.947L188.917 295.39C228.72 295.772 235.167 296.182 235.167 298.333C235.167 300.475 228.593 300.953 189.333 301.667L143.5 302.5L143.031 323.015L142.562 343.53L188.031 343.015C256.216 342.243 251 349.719 251 252.76V181.857L238.5 153.333C226.883 126.826 226 123.992 226 113.238C226 94.567 227.068 95 181 95H142.667V109.167ZM105.941 198.224C106.89 199.997 107.667 209.796 107.667 220C107.667 246.141 108.843 245 81.894 245C53.234 245 54.333 245.998 54.333 220C54.333 194.002 53.234 195 81.894 195C102.257 195 104.367 195.283 105.941 198.224ZM190.808 211.383C210.844 240.888 205.217 266.562 178.697 266.642C151.392 266.725 146.886 237.074 169.739 207.7C178.798 196.055 180.614 196.373 190.808 211.383Z" fill="#354053"/>
</svg>
