<svg width="17" height="21" viewBox="0 0 17 21" fill="none" xmlns="http://www.w3.org/2000/svg">
<path fill-rule="evenodd" clip-rule="evenodd" d="M3.24507 0.780235C3.18525 0.838985 3.1363 1.12697 3.1363 1.42024V1.95359H4.68636H6.23651V1.31359V0.673584H4.79512C4.00243 0.673584 3.30489 0.721582 3.24507 0.780235ZM2.91681 2.56614C2.6887 2.81333 2.6468 3.26566 2.6468 5.48384V8.10904L3.24017 7.23116C4.91397 4.75475 5.05094 4.80688 7.87575 8.99326C11.679 14.6298 12.0811 16.4338 10.14 19.151L9.51 20.0328H12.5143C16.4286 20.0328 16.0265 20.7231 16.0265 14.003V8.68444L15.4986 8.0789C14.7132 7.17798 10.6471 2.87679 10.2752 2.55357C9.7759 2.11947 3.31889 2.13051 2.91681 2.56614ZM11.8942 6.52185C13.9716 8.69577 13.9398 8.62089 13.1002 9.36467C12.2758 10.095 12.366 10.1398 10.2749 7.96351C8.31376 5.92245 8.31855 5.93329 9.04233 5.20104C9.80722 4.42722 9.95995 4.49796 11.8942 6.52185ZM2.96498 9.8267C-0.532509 15.0409 -0.806825 16.6938 1.46485 18.8631C5.35472 22.5774 11.6306 18.3713 9.30343 13.6097C8.67207 12.3179 5.18242 7.07334 4.95421 7.07334C4.87589 7.07334 3.98069 8.31236 2.96498 9.8267ZM2.61958 13.873C2.07418 15.446 2.37229 16.7253 3.54445 17.8416C4.41909 18.6745 4.16416 18.8686 2.97604 18.2743C1.09919 17.3354 0.680181 14.9551 2.10453 13.3233C2.85572 12.4629 3.04026 12.6598 2.61958 13.873Z" fill="#354053"/>
</svg>
