<svg width="20" height="20" viewBox="0 0 20 20" fill="none" xmlns="http://www.w3.org/2000/svg">
<path d="M4.51001 17.65C4.51001 16.8485 5.16515 16.1888 5.99999 16.1888C6.83814 16.1888 7.5 16.8518 7.5 17.65C7.5 18.4481 6.83814 19.1111 5.99999 19.1111C5.16515 19.1111 4.51001 18.4514 4.51001 17.65Z" fill="#CCCCCC"/>
<path d="M4.51001 17.65C4.51001 16.8485 5.16515 16.1888 5.99999 16.1888C6.83814 16.1888 7.5 16.8518 7.5 17.65C7.5 18.4481 6.83814 19.1111 5.99999 19.1111C5.16515 19.1111 4.51001 18.4514 4.51001 17.65Z" stroke="#CCCCCC"/>
<path d="M4.51001 17.65C4.51001 16.8485 5.16515 16.1888 5.99999 16.1888C6.83814 16.1888 7.5 16.8518 7.5 17.65C7.5 18.4481 6.83814 19.1111 5.99999 19.1111C5.16515 19.1111 4.51001 18.4514 4.51001 17.65Z" stroke="#CCCCCC"/>
<path d="M7.10001 10.2861H6.80694L6.66375 10.5418L5.77029 12.1373C5.70287 12.2551 5.67503 12.3812 5.67503 12.502C5.67503 12.9246 6.01809 13.2471 6.42501 13.2471H17.5V14.2083H6C5.16184 14.2083 4.49998 13.5453 4.49998 12.7472C4.49998 12.4949 4.56534 12.2589 4.68258 12.0429L6.03089 9.64352L6.15875 9.41598L6.04517 9.18098L2.45018 1.74352L2.31368 1.46112H2.00001H0.5V0.5H2.95162L3.76501 2.1791L3.90163 2.46112H4.215H19C19.2848 2.46112 19.5 2.68442 19.5 2.94165C19.5 3.02562 19.478 3.10042 19.443 3.16055L19.4429 3.16052L19.4391 3.16742L15.866 9.52783C15.8657 9.52835 15.8654 9.52887 15.8651 9.52939C15.6063 9.9805 15.1148 10.2861 14.55 10.2861H7.10001Z" fill="#CCCCCC"/>
<path d="M7.10001 10.2861H6.80694L6.66375 10.5418L5.77029 12.1373C5.70287 12.2551 5.67503 12.3812 5.67503 12.502C5.67503 12.9246 6.01809 13.2471 6.42501 13.2471H17.5V14.2083H6C5.16184 14.2083 4.49998 13.5453 4.49998 12.7472C4.49998 12.4949 4.56534 12.2589 4.68258 12.0429L6.03089 9.64352L6.15875 9.41598L6.04517 9.18098L2.45018 1.74352L2.31368 1.46112H2.00001H0.5V0.5H2.95162L3.76501 2.1791L3.90163 2.46112H4.215H19C19.2848 2.46112 19.5 2.68442 19.5 2.94165C19.5 3.02562 19.478 3.10042 19.443 3.16055L19.4429 3.16052L19.4391 3.16742L15.866 9.52783C15.8657 9.52835 15.8654 9.52887 15.8651 9.52939C15.6063 9.9805 15.1148 10.2861 14.55 10.2861H7.10001Z" stroke="#CCCCCC"/>
<path d="M7.10001 10.2861H6.80694L6.66375 10.5418L5.77029 12.1373C5.70287 12.2551 5.67503 12.3812 5.67503 12.502C5.67503 12.9246 6.01809 13.2471 6.42501 13.2471H17.5V14.2083H6C5.16184 14.2083 4.49998 13.5453 4.49998 12.7472C4.49998 12.4949 4.56534 12.2589 4.68258 12.0429L6.03089 9.64352L6.15875 9.41598L6.04517 9.18098L2.45018 1.74352L2.31368 1.46112H2.00001H0.5V0.5H2.95162L3.76501 2.1791L3.90163 2.46112H4.215H19C19.2848 2.46112 19.5 2.68442 19.5 2.94165C19.5 3.02562 19.478 3.10042 19.443 3.16055L19.4429 3.16052L19.4391 3.16742L15.866 9.52783C15.8657 9.52835 15.8654 9.52887 15.8651 9.52939C15.6063 9.9805 15.1148 10.2861 14.55 10.2861H7.10001Z" stroke="#CCCCCC"/>
<path d="M14.51 17.65C14.51 16.8485 15.1651 16.1888 16 16.1888C16.8382 16.1888 17.5 16.8518 17.5 17.65C17.5 18.4481 16.8382 19.1111 16 19.1111C15.1651 19.1111 14.51 18.4514 14.51 17.65Z" fill="#CCCCCC"/>
<path d="M14.51 17.65C14.51 16.8485 15.1651 16.1888 16 16.1888C16.8382 16.1888 17.5 16.8518 17.5 17.65C17.5 18.4481 16.8382 19.1111 16 19.1111C15.1651 19.1111 14.51 18.4514 14.51 17.65Z" stroke="#CCCCCC"/>
<path d="M14.51 17.65C14.51 16.8485 15.1651 16.1888 16 16.1888C16.8382 16.1888 17.5 16.8518 17.5 17.65C17.5 18.4481 16.8382 19.1111 16 19.1111C15.1651 19.1111 14.51 18.4514 14.51 17.65Z" stroke="#CCCCCC"/>
</svg>
