<svg width="25" height="24" viewBox="0 0 25 24" fill="none" xmlns="http://www.w3.org/2000/svg">
<rect x="6.51221" y="6" width="12.6829" height="13" fill="#ED2228"/>
<path fill-rule="evenodd" clip-rule="evenodd" d="M12.3659 1C6.43903 1 1.63416 5.925 1.63416 12C1.63416 18.075 6.43903 23 12.3659 23C18.2927 23 23.0976 18.075 23.0976 12C23.0976 5.925 18.2927 1 12.3659 1ZM15.9824 9.707C16.1602 9.5184 16.2585 9.2658 16.2563 9.0036C16.2541 8.7414 16.1514 8.49059 15.9706 8.30518C15.7897 8.11977 15.545 8.0146 15.2892 8.01233C15.0334 8.01005 14.7869 8.11084 14.6029 8.293L12.3659 10.586L10.1288 8.293C10.0388 8.19749 9.93114 8.12131 9.81211 8.0689C9.69308 8.01649 9.56506 7.9889 9.43552 7.98775C9.30598 7.9866 9.17751 8.0119 9.05761 8.06218C8.93772 8.11246 8.82879 8.18671 8.73718 8.28061C8.64558 8.3745 8.57314 8.48615 8.52409 8.60905C8.47503 8.73194 8.45035 8.86362 8.45147 8.9964C8.4526 9.12918 8.47951 9.2604 8.53064 9.3824C8.58177 9.50441 8.6561 9.61475 8.74928 9.707L10.9864 12L8.74928 14.293C8.6561 14.3852 8.58177 14.4956 8.53064 14.6176C8.47951 14.7396 8.4526 14.8708 8.45147 15.0036C8.45035 15.1364 8.47503 15.2681 8.52409 15.391C8.57314 15.5139 8.64558 15.6255 8.73718 15.7194C8.82879 15.8133 8.93772 15.8875 9.05761 15.9378C9.17751 15.9881 9.30598 16.0134 9.43552 16.0123C9.56506 16.0111 9.69308 15.9835 9.81211 15.9311C9.93114 15.8787 10.0388 15.8025 10.1288 15.707L12.3659 13.414L14.6029 15.707C14.7869 15.8892 15.0334 15.99 15.2892 15.9877C15.545 15.9854 15.7897 15.8802 15.9706 15.6948C16.1514 15.5094 16.2541 15.2586 16.2563 14.9964C16.2585 14.7342 16.1602 14.4816 15.9824 14.293L13.7454 12L15.9824 9.707Z" fill="white"/>
</svg>
