<svg width="21" height="21" viewBox="0 0 21 21" fill="none" xmlns="http://www.w3.org/2000/svg">
<path fill-rule="evenodd" clip-rule="evenodd" d="M9.43486 0.78015C9.221 0.997706 9.22436 4.4311 9.43865 4.60544C9.52272 4.67384 9.99222 4.81114 10.482 4.91048C13.1459 5.45083 15.1232 7.38967 15.6742 10.0017C15.9335 11.2308 15.8255 11.1746 17.9312 11.1746C20.1105 11.1746 20.0886 11.187 19.9693 10.0326C19.4707 5.20654 15.2962 1.13009 10.4135 0.701364C9.80855 0.648256 9.54361 0.669583 9.43486 0.78015ZM7.37784 2.34555C0.231441 3.75037 -2.48582 12.5136 2.66409 17.5472C8.20673 22.9646 17.4448 19.8865 18.4115 12.3003L18.4953 11.6424H17.2958C15.7253 11.6424 15.5394 11.5092 15.3113 10.2211C14.8565 7.65304 12.8823 5.71321 10.2712 5.26856C8.97265 5.0475 8.87857 4.92542 8.82777 3.39594L8.78713 2.17121L8.47003 2.18216C8.29566 2.18819 7.8042 2.26172 7.37784 2.34555ZM10.2637 6.16011C14.3974 7.01265 15.9089 11.946 12.9311 14.8659C9.8346 17.9021 4.62659 16.1922 4.0009 11.9339C3.48926 8.45142 6.75873 5.43729 10.2637 6.16011ZM8.49922 6.8602C4.92201 7.43647 3.46629 11.6904 5.96125 14.2772C8.99219 17.4196 14.3748 14.8098 13.6788 10.5352C13.2853 8.11874 10.9542 6.4648 8.49922 6.8602ZM9.77671 8.04304C9.96217 8.38281 9.80677 8.8208 9.47149 8.9033C8.86204 9.0533 8.45457 8.67628 8.63244 8.12695C8.78427 7.65781 9.53638 7.60274 9.77671 8.04304ZM6.9009 9.88844C7.29842 10.2782 7.03677 10.9408 6.48527 10.9408C5.86631 10.9408 5.59521 10.1783 6.09269 9.83659C6.44292 9.59603 6.61385 9.60697 6.9009 9.88844ZM12.3597 9.83659C12.8572 10.1783 12.5861 10.9408 11.9671 10.9408C11.4156 10.9408 11.154 10.2782 11.5515 9.88844C11.8385 9.60697 12.0095 9.59603 12.3597 9.83659ZM10.1141 10.4136C10.5464 10.8375 10.5439 11.6311 10.1089 12.0577C9.31036 12.8407 8.03372 12.3469 8.03372 11.255C8.03372 10.1333 9.30428 9.61946 10.1141 10.4136ZM8.03945 13.213C8.25853 13.5409 8.13597 13.8877 7.72485 14.1034C7.18366 14.3874 6.6014 13.5028 7.04399 13.0688C7.29348 12.8241 7.83167 12.9021 8.03945 13.213ZM11.4084 13.0688C11.851 13.5028 11.2687 14.3874 10.7275 14.1034C10.3164 13.8877 10.1939 13.5409 10.4129 13.213C10.6207 12.9021 11.1589 12.8241 11.4084 13.0688Z" fill="#354053"/>
</svg>
