<svg width="258" height="315" viewBox="0 0 258 315" xmlns="http://www.w3.org/2000/svg">
<path fill-rule="evenodd" clip-rule="evenodd" d="M152.095 8.40298C157.587 13.024 164.897 22.327 168.34 29.075C177.198 46.437 176.057 48.932 166.529 33.036C149.772 5.07899 116.176 -2.45001 88.026 15.443C-26.205 88.055 -28.882 339.426 85 299.602C89.4 298.064 91.975 297.889 90.723 299.213C89.47 300.537 80.83 304.215 71.523 307.386L54.6 313.151L69 313.305C178.159 314.474 250.37 54.464 154.759 4.51398C141.825 -2.24202 140.955 -0.971015 152.095 8.40298ZM177.8 17.788C180.44 21.205 184.4 25.152 186.6 26.559C188.8 27.966 190.622 32.286 190.649 36.159C190.694 42.691 196.842 56.202 196.951 50.008C196.978 48.473 199.16 49.009 201.8 51.2C205.662 54.405 206.6 54.343 206.6 50.88C206.6 48.479 208.804 49.723 211.585 53.694C214.327 57.608 215.693 62.232 214.619 63.969C213.502 65.777 214.791 66.312 217.634 65.221C224.064 62.754 223.909 59.366 217.051 52.508C214 49.457 211.48 44.854 211.451 42.281C211.423 39.708 207.8 35.328 203.4 32.548L195.4 27.492L202.841 35.808C206.965 40.418 208.904 44.976 207.191 46.035C204.207 47.879 193.8 35.04 193.8 29.514C193.8 28.023 189.12 23.378 183.4 19.19C175.07 13.092 173.955 12.813 177.8 17.788ZM138.002 41.796C183.384 85.782 155.218 223.724 92.352 265.364C69.11 280.759 37.134 277.388 27.013 258.477C23.624 252.144 24.295 252.311 33.564 260.11C39.244 264.89 47.021 268.798 50.846 268.795C56.376 268.791 55.51 267.644 46.617 263.195C-19.613 230.059 44.966 22.036 115.952 39.853C121.534 41.254 123.251 40.748 121.66 38.173C120.181 35.78 112.523 34.982 99.792 35.895C81.313 37.221 80.745 37.058 89.8 33.021C105.551 26 125.44 29.62 138.002 41.796ZM216.2 44.061C216.2 46.028 219.071 49.648 222.58 52.106C226.088 54.563 228.117 57.416 227.087 58.446C223.926 61.607 229.168 73.6 233.711 73.6C236.83 73.6 237.542 76.945 236.337 85.933C234.917 96.52 235.639 98.516 241.441 100.033C245.159 101.005 248.2 103.33 248.2 105.2C248.2 107.07 246.04 107.77 243.4 106.757C239.671 105.326 238.6 107.533 238.6 116.646C238.6 124.439 239.795 127.639 242.158 126.179C244.115 124.97 246.972 125.965 248.509 128.39C252.675 134.968 252.013 136.938 245.8 136.444C241.541 136.106 239.963 138.867 239.208 147.973C238.437 157.286 239.232 159.556 242.788 158.192C245.607 157.11 248.019 158.96 249.08 163.019C250.026 166.639 249.496 169.6 247.9 169.6C246.305 169.6 245 167.851 245 165.714C245 156.976 235.139 172.202 234.055 182.615C233.426 188.657 230.591 198.954 227.755 205.497C221.482 219.974 221.42 221.052 226.987 218.916C229.4 217.99 232.296 219.635 233.423 222.572C234.898 226.415 234.143 227.402 230.729 226.092C225.664 224.149 218.338 230.027 212.704 240.552C209.656 246.248 210.035 246.757 215.925 244.887C220.824 243.332 222.6 244.154 222.6 247.973C222.6 250.836 221.29 252.368 219.689 251.378C214.903 248.421 208.011 252.519 200.353 262.877C193.21 272.539 193.205 272.62 199.867 270.506C203.991 269.197 206.6 269.765 206.6 271.973C206.6 273.956 205.418 274.847 203.974 273.955C200.051 271.53 181 284.039 181 289.039C181 291.423 177.115 295.143 172.367 297.306C165.293 300.529 164.57 301.832 168.367 304.522C172.235 307.262 172.14 307.531 167.79 306.152C164.924 305.243 161.199 305.881 159.511 307.569C157.58 309.5 153.518 309.526 148.553 307.638C143.279 305.633 138.597 305.842 134.432 308.269C121.726 315.672 158.152 317.098 173 309.78C241.16 276.184 279.851 151.523 244.388 79.769C233.454 57.644 216.2 35.788 216.2 44.061ZM110.839 66.4C93.577 130.986 93.667 131.413 124.033 128.993C152.252 126.744 155.405 124.594 155.382 107.608C155.325 65.025 119.953 32.302 110.839 66.4ZM69.336 72.006C49.624 93.392 47.488 99.765 56.02 111.747C64.355 123.453 74.613 124.763 76.791 114.4C77.624 110.44 79.868 99.305 81.778 89.656C83.689 80.006 86.071 68.846 87.073 64.856C89.858 53.76 83.965 56.136 69.336 72.006ZM200.2 66.827C200.2 73.577 202.133 76.674 207.4 78.366C213.498 80.324 213.743 80.907 209 82.174C204.813 83.292 203.4 87.001 203.4 96.875C203.4 106.926 204.29 109.19 207.129 106.351C209.967 103.513 211.932 103.933 215.358 108.111C219.355 112.986 219.621 112.346 217.731 102.4C216.561 96.24 215.153 86.717 214.602 81.238C212.682 62.139 200.2 49.65 200.2 66.827ZM217.526 74.037C218.771 78.197 220.311 87.609 220.95 94.953C222.545 113.309 228.608 124.705 232.797 117.22C236.663 110.311 234.771 97.383 230.028 98.299C228.036 98.683 225.567 96.808 224.54 94.133C223.478 91.365 224.037 90.11 225.837 91.223C227.655 92.346 229 89.063 229 83.501C229 76.88 226.831 72.665 222.132 70.149C215.826 66.775 215.449 67.094 217.526 74.037ZM207.271 115.809C205.142 117.938 203.514 125.512 203.653 132.64C203.792 139.768 204.632 143.8 205.519 141.6C207.803 135.941 213 136.628 213 142.589C213 145.333 214.44 146.688 216.2 145.6C220.607 142.876 220.017 127.92 215.157 119.169C212.016 113.513 210.299 112.781 207.271 115.809ZM82.904 120.138C81.862 122.854 81.811 125.878 82.792 126.858C85.594 129.661 91.4 124.908 91.4 119.811C91.4 113.671 85.296 113.906 82.904 120.138ZM222.649 131.738C222.579 148.497 225.4 154.716 230.974 150.09C236.341 145.635 237.167 123.33 231.842 126.621C229.885 127.83 227.028 126.835 225.491 124.41C223.603 121.429 222.682 123.804 222.649 131.738ZM32.513 133.6C23.643 162.515 24.083 201.019 33.16 190.24C62.062 155.92 62.65 154.234 51.02 138.986C41.809 126.91 35.159 124.974 32.513 133.6ZM64.787 130.08C61.594 133.272 62.112 144 65.458 144C69.638 144 72.868 133.788 69.692 130.612C68.197 129.117 65.989 128.877 64.787 130.08ZM73.981 138.312C67.855 147.059 67.556 158.018 73.314 162.797C78.45 167.059 86.213 159.644 89.13 147.691C93.044 131.652 83.002 125.434 73.981 138.312ZM96.733 139.733C93.582 142.885 94.142 153.6 97.458 153.6C100.316 153.6 104.2 146.075 104.2 140.538C104.2 137.116 99.822 136.644 96.733 139.733ZM200.564 157.132C195.683 171.133 196.053 176.163 201.8 173.957C204.839 172.791 206.6 174.001 206.6 177.258C206.6 180.086 208.115 182.4 209.967 182.4C214.559 182.4 212.455 149.65 207.764 148.106C205.764 147.448 202.524 151.509 200.564 157.132ZM218.26 160.94C214.301 180.943 221.433 193.339 228.887 179.41C233.928 169.992 233.148 156.637 227.68 158.735C224.988 159.769 222.655 158.11 221.911 154.635C221.155 151.102 219.714 153.59 218.26 160.94ZM120.885 161.55C109.822 163.64 99.41 166.71 97.749 168.371C94.207 171.913 99.201 222.084 104.464 235.832L107.897 244.8L114.385 236.831C129.339 218.46 149.446 165.085 143.393 159.828C142.077 158.685 131.948 159.46 120.885 161.55ZM61.587 162.08C58.394 165.272 58.912 176 62.258 176C66.438 176 69.668 165.788 66.492 162.612C64.997 161.117 62.789 160.877 61.587 162.08ZM84.2 168.246C82.88 169.577 81.8 173.595 81.8 177.173C81.8 181.883 82.767 182.713 85.3 180.18C87.225 178.255 88.305 174.238 87.7 171.253C87.095 168.268 85.52 166.915 84.2 168.246ZM196.281 184.875C190.029 192.11 182.228 214.452 187.953 208.727C193.366 203.314 196.295 203.809 197.862 210.4C198.904 214.785 199.996 214.045 202.896 206.992C210.34 188.886 205.834 173.822 196.281 184.875ZM47.814 197.459C30.019 218.745 29.845 219.199 34.91 231.322C45.879 257.573 91.28 264.828 83.089 239.021C81.959 235.459 79.351 221.622 77.293 208.272C72.498 177.155 66.598 174.991 47.814 197.459ZM210.224 196.744C206.139 211.539 208.39 218.58 215.919 214.55C221.868 211.366 230.265 188.8 225.5 188.8C223.905 188.8 222.554 190.6 222.498 192.8C222.439 195.147 220.55 194.364 217.93 190.905C213.78 185.428 213.234 185.841 210.224 196.744ZM242.824 198.307C240.455 200.91 235.723 190.866 237.763 187.565C238.831 185.838 240.715 187.209 241.95 190.612C243.186 194.016 243.579 197.478 242.824 198.307ZM187.092 215.45C178.701 221.61 169.348 241.472 176.049 238.901C185.939 235.106 190.409 243.384 184.809 255.127C176.425 272.709 189.985 271.983 201.618 254.228C206.98 246.045 206.954 245.856 200.73 247.832C192.489 250.447 188.947 240.729 194.056 229.517C198.863 218.965 194.449 210.048 187.092 215.45ZM200.992 221.939C192.49 240.599 200.396 251.539 211.219 236.088C217.429 227.222 217.663 220.439 211.68 222.735C209.002 223.763 206.717 222.168 206.072 218.823C205.215 214.372 204.139 215.032 200.992 221.939ZM171.017 246.423C161.328 252.084 153.514 266.63 161.528 264.086C165.968 262.677 168.236 263.379 168.306 266.184C168.473 272.798 181 256.082 181 249.245C181 242.547 178.742 241.909 171.017 246.423ZM146.778 276.98C138.529 284.496 138.385 284.998 145 283.165C149.628 281.882 152.2 282.566 152.2 285.08C152.2 287.536 154.583 286.836 158.6 283.2C162.12 280.014 165 275.471 165 273.104C165 266.282 156.548 268.08 146.778 276.98ZM170.364 274.576C159.303 286.8 169.7 291.777 183.4 280.817C188.351 276.856 188.734 270.798 183.842 273.821C181.885 275.03 179.259 274.361 178.007 272.334C176.413 269.756 174.117 270.429 170.364 274.576ZM129 293.03C124.16 295.656 120.2 299.058 120.2 300.589C120.2 302.121 115.88 304.88 110.6 306.72C98.079 311.086 98.485 312.314 112.299 311.856C122.809 311.507 136.906 304 127.051 304C124.835 304 123.955 302.49 125.096 300.645C126.515 298.348 128.417 298.324 131.121 300.568C133.842 302.827 136.202 302.718 138.701 300.219C141.294 297.626 143.508 297.57 146.464 300.023C149.439 302.492 153.518 302.228 161 299.082C170.959 294.895 176.301 288.635 166.807 292.278C164.28 293.247 161.611 292.321 160.874 290.22C159.959 287.61 157.36 288.331 152.668 292.496C146.599 297.882 145.8 297.975 145.8 293.296C145.8 286.818 140.602 286.736 129 293.03Z" />
</svg>
