<svg width="20" height="20" viewBox="0 0 20 20" fill="none" xmlns="http://www.w3.org/2000/svg">
<path d="M0.625 6.24998H8.75L9.375 7.49998H1.25L0.625 6.24998ZM1.45833 8.74998H9.58333L10.2083 9.99998H2.08333L1.45833 8.74998ZM15 15.4166C15.6917 15.4166 16.25 14.8583 16.25 14.1666C16.25 13.475 15.6917 12.9166 15 12.9166C14.3083 12.9166 13.75 13.475 13.75 14.1666C13.75 14.8583 14.3083 15.4166 15 15.4166ZM16.25 7.91665H14.1667V9.99998H17.8833L16.25 7.91665ZM6.66667 15.4166C7.35833 15.4166 7.91667 14.8583 7.91667 14.1666C7.91667 13.475 7.35833 12.9166 6.66667 12.9166C5.975 12.9166 5.41667 13.475 5.41667 14.1666C5.41667 14.8583 5.975 15.4166 6.66667 15.4166ZM16.6667 6.66665L19.1667 9.99998V14.1666H17.5C17.5 15.55 16.3833 16.6666 15 16.6666C13.6167 16.6666 12.5 15.55 12.5 14.1666H9.16667C9.16667 15.55 8.04167 16.6666 6.66667 16.6666C5.28333 16.6666 4.16667 15.55 4.16667 14.1666H2.5V11.25H4.16667V12.5H4.8C5.25833 11.9916 5.925 11.6666 6.66667 11.6666C7.40833 11.6666 8.075 11.9916 8.53333 12.5H12.5V4.99998H2.5C2.5 4.07498 3.24167 3.33331 4.16667 3.33331H14.1667V6.66665H16.6667Z" fill="#ED2228"/>
</svg>
