<svg width="360" height="360" viewBox="0 0 360 360" fill="none" xmlns="http://www.w3.org/2000/svg">
<path fill-rule="evenodd" clip-rule="evenodd" d="M163.75 1.34605C158.927 1.69505 156.667 2.62605 156.667 4.26205C156.667 7.06105 148.927 7.61505 148.016 4.88105C147.598 3.62605 145.114 3.67605 139.661 5.04905C134.583 6.32805 132.182 7.73605 132.714 9.12205C133.685 11.6541 125.892 13.5591 123.667 11.3341C121.433 9.10005 108.34 14.7451 109.393 17.4881C110.392 20.0921 104.984 22.1951 101.11 20.7091C98.045 19.5331 86.187 26.2091 87.517 28.3621C88.738 30.3371 81.756 34.93 79.09 33.906C76.184 32.792 66.362 40.136 67.342 42.69C68.373 45.375 62.371 50.6321 59.97 49.1481C57.375 47.5441 48.007 56.7451 49.164 59.7611C50.292 62.7001 45.43 68.3941 42.69 67.3421C40.255 66.4081 32.826 76.0421 33.83 78.8331C34.862 81.7031 31.957 86.6671 29.244 86.6671C25.462 86.6671 20.157 96.8811 21.185 102.184C21.912 105.931 21.408 107.046 18.662 107.764C14.679 108.806 8.78901 121.555 11.513 123.238C13.784 124.642 11.835 131.667 9.17501 131.667C6.60701 131.667 2.72301 145.577 5.06501 146.389C7.65801 147.288 6.99201 156.667 4.33401 156.667C2.77001 156.667 1.80601 159.135 1.40601 164.167C0.990009 169.395 1.44401 171.667 2.90501 171.667C5.95701 171.667 5.47301 179.57 2.31201 181.339C-0.499991 182.912 0.374008 196.667 3.28601 196.667C4.01501 196.667 4.97001 198.542 5.40801 200.833C5.84601 203.125 5.55801 205 4.76901 205C3.12101 205 2.90101 212.384 4.38401 217.917C4.93701 219.979 6.33901 221.667 7.50001 221.667C10.196 221.667 12.109 228.697 9.80001 230.123C7.39301 231.611 11.507 245 14.372 245C17.638 245 20.876 251.762 18.356 253.319C15.677 254.975 22.483 268.555 25.426 267.426C28.441 266.269 32.64 273.368 29.931 275.043C27.351 276.637 36.206 288.867 39.128 287.746C41.574 286.807 45.233 292.453 44.097 295.415C42.992 298.292 52.474 307.394 54.97 305.852C57.368 304.37 63.373 309.624 62.345 312.304C61.339 314.925 70.884 324.014 73.163 322.605C75.637 321.076 81.667 324.607 81.667 327.583C81.667 330.63 91.689 336.979 94.704 335.843C97.646 334.734 103.333 337.895 103.333 340.639C103.333 343.369 115.862 348.471 117.802 346.531C119.836 344.498 126.667 346.629 126.667 349.297C126.667 352.183 140.457 356.13 141.335 353.495C142.266 350.703 145.741 351.306 150 355C154.035 358.499 164.049 359.553 165.833 356.667C167.491 353.985 175 354.668 175 357.5C175 359.352 176.944 360 182.5 360C188.056 360 190 359.352 190 357.5C190 354.604 199.363 353.922 200.305 356.749C201.134 359.234 215 356.78 215 354.148C215 351.541 222.999 349.829 223.81 352.262C224.681 354.876 238.333 350.442 238.333 347.545C238.333 344.549 244.808 342.475 247.078 344.744C249.212 346.878 261.667 341.007 261.667 337.867C261.667 334.964 267.897 331.28 269.211 333.406C270.638 335.714 283.646 328.218 282.662 325.655C281.644 323.001 287.607 317.688 289.967 319.146C292.329 320.606 303.734 311.997 302.368 309.786C300.951 307.494 306.484 301.701 309.123 302.714C311.838 303.756 319.975 293.54 318.822 290.536C317.74 287.716 321.555 282.934 324.107 283.913C326.753 284.929 333.94 273.986 332.718 270.802C331.473 267.555 334.927 261.743 337.513 262.736C339.862 263.637 345.82 251.009 344.247 248.463C342.652 245.883 344.808 240 347.349 240C350.176 240 354.247 226.595 351.866 225.123C349.567 223.702 351.465 216.667 354.148 216.667C356.78 216.667 359.234 202.8 356.749 201.972C353.922 201.029 354.604 191.667 357.5 191.667C359.343 191.667 360 189.742 360 184.345C360 179.374 359.197 176.715 357.5 176.064C354.743 175.006 354.004 166.667 356.667 166.667C357.583 166.667 358.333 163.292 358.333 159.167C358.333 153.892 357.649 151.667 356.028 151.667C353.079 151.667 351.276 144.979 353.502 142.297C355.614 139.752 352.283 126.089 349.908 127.557C347.663 128.945 345.011 121.297 346.916 118.927C349.012 116.318 343.722 103.289 340.991 104.337C338.379 105.339 334.684 97.6501 336.774 95.5591C338.564 93.7701 330.535 81.1391 328.433 82.4391C326.353 83.7241 323.454 79.4881 323.747 75.5921C324.079 71.1911 316.538 61.607 313.539 62.618C310.257 63.724 306.433 60.027 307.473 56.753C308.553 53.348 299.454 44.1111 296.697 45.8151C294.534 47.1511 287.971 41.9351 289.237 39.8861C290.415 37.9811 278.823 29.5011 276.773 30.7681C274.374 32.2501 268.333 28.701 268.333 25.809C268.333 22.546 255.508 15.9751 254.579 18.7621C253.691 21.4281 244.776 17.626 245.406 14.849C246.005 12.215 233.065 7.73705 231.619 10.078C230.984 11.105 228.648 11.3911 226.103 10.7521C223.676 10.1431 222.105 8.97305 222.612 8.15205C223.732 6.33905 216.318 3.33305 210.725 3.33305C208.493 3.33305 206.667 4.08305 206.667 5.00005C206.667 7.45505 202.265 7.02705 199.546 4.30805C195.766 0.528051 181.667 -1.04695 181.667 2.31105C181.667 5.53705 175.388 5.96105 172.684 2.91705C171.592 1.68705 167.93 1.04305 163.75 1.34605ZM222.5 12.4141C340.956 42.6631 392.289 185.733 319.446 282.611C241.099 386.809 81.904 372.318 24.846 255.794C-39.548 124.287 80.711 -23.7929 222.5 12.4141ZM159.167 11.7071C17.741 29.5681 -39.545 204.601 63.881 302.846C163.054 397.05 326.488 340.672 347.525 205C364.492 95.581 269.215 -2.19195 159.167 11.7071ZM203.603 49.058C303.412 68.572 346.612 183.234 284.205 262.993C225.998 337.383 108.157 326.918 62.832 243.333C10.169 146.215 95.836 27.987 203.603 49.058ZM157.985 52.3141C144.321 54.7501 144.459 54.6171 147.268 62.6461C149.288 68.4181 150.102 69.1091 154.358 68.6641C157.003 68.3871 168.542 68.1611 180 68.1611C191.458 68.1611 203.041 68.3871 205.739 68.6641C211.52 69.2561 217.911 57.8291 213.368 55.0211C206.145 50.5571 176.079 49.0871 157.985 52.3141ZM128.817 60.805L120.134 64.7521L139.234 104.053C159.885 146.548 160.358 148.127 154.242 154.242C148.127 160.358 146.548 159.885 104.054 139.234L64.753 120.135L61.721 127.151C55.22 142.197 51.9 139.583 97.048 154.97C141.727 170.198 143.333 171.066 143.333 180C143.333 188.902 141.803 189.731 97.083 205.063C74.854 212.684 56.667 219.516 56.667 220.245C56.667 220.975 58.513 225.748 60.771 230.852L64.875 240.132L72.021 236.486C98.931 222.756 144.325 201.667 146.968 201.667C151.282 201.667 158.333 209.001 158.333 213.488C158.333 215.49 149.734 234.702 139.224 256.181L120.114 295.234L129.271 299.284C134.308 301.511 139.058 303.333 139.827 303.333C140.596 303.333 147.416 285.146 154.982 262.917C169.263 220.959 171.585 216.667 180 216.667C188.578 216.667 190.831 220.82 205.091 262.917C212.622 285.146 219.41 303.333 220.177 303.333C220.944 303.333 225.692 301.511 230.728 299.284L239.885 295.234L220.776 255.823C200.065 213.11 199.682 211.833 205.758 205.758C211.873 199.642 213.452 200.115 255.944 220.765L295.244 239.864L299.288 230.718C301.513 225.687 303.333 220.946 303.333 220.182C303.333 219.418 285.146 212.617 262.917 205.069C220.876 190.794 216.667 188.512 216.667 180C216.667 171.585 220.959 169.263 262.917 154.982C285.146 147.416 303.333 140.596 303.333 139.827C303.333 139.058 301.511 134.308 299.284 129.271L295.234 120.114L256.181 139.224C214.159 159.786 211.957 160.442 205.758 154.242C199.698 148.182 200.046 147.021 220.787 104.227L239.907 64.7751L230.739 60.7211C225.697 58.4911 220.931 56.667 220.149 56.667C219.366 56.667 212.581 74.8541 205.07 97.0831C190.087 141.426 189.053 143.333 180 143.333C171.117 143.333 170.319 141.855 155.029 97.0831C147.437 74.8541 140.387 56.7101 139.363 56.7631C138.338 56.8151 133.593 58.635 128.817 60.805ZM107.586 72.5551C96.142 80.4701 80.94 95.6931 73.154 107.035L66.609 116.569L73.628 120.15C80.646 123.731 80.647 123.731 83.24 120.381C84.666 118.539 89.031 112.867 92.94 107.778C96.848 102.689 105.286 94.6291 111.69 89.8671C118.094 85.1051 123.333 80.9071 123.333 80.5381C123.333 79.5561 116.667 66.6501 116.216 66.7581C116.006 66.8091 112.122 69.4171 107.586 72.5551ZM239.85 73.6281C236.269 80.6461 236.269 80.6471 239.619 83.2401C241.461 84.6661 247.277 89.1441 252.544 93.1911C257.81 97.2381 265.859 105.675 270.431 111.941C275.002 118.207 279.056 123.333 279.438 123.333C279.82 123.333 283.108 121.815 286.745 119.96L293.358 116.587L290.53 112.043C281.33 97.2601 267.853 83.2981 252.965 73.1241L243.431 66.6091L239.85 73.6281ZM161.775 71.7831C151.359 73.6361 150.895 73.9181 152.282 77.5321C153.132 79.7481 154.671 79.975 161.238 78.854C170.031 77.352 186.44 77.1411 199.109 78.3661C205.805 79.0141 207.49 78.6531 207.938 76.4741C208.913 71.7301 179.097 68.7001 161.775 71.7831ZM112.993 93.4251C103.635 100.454 85.071 121.564 85.016 125.238C85 126.31 90.262 128.817 90.719 127.956C95.755 118.452 115.327 98.6321 125.731 92.5001C127.55 91.4281 128.158 89.7931 127.434 87.9171C125.874 83.8691 125.551 83.9921 112.993 93.4251ZM232.611 87.8131C231.971 89.4791 232.515 91.1751 233.945 91.9761C244.008 97.6071 262.393 115.992 268.024 126.055C269.359 128.44 275 127.62 275 125.041C275 121.549 256.784 100.87 247.168 93.4461C235.065 84.1031 234.167 83.7561 232.611 87.8131ZM54.383 147.538C51.044 156.238 49.495 180.717 51.385 194.912C54.318 216.939 54.196 216.773 64.328 212.54L70.216 210.08L68.858 202.123C67.114 191.906 67.111 168.11 68.852 157.914C70.107 150.571 69.925 149.891 66.352 148.554C56.932 145.028 55.396 144.898 54.383 147.538ZM296.667 147.399C291.006 149.482 290.857 149.761 291.635 156.856C292.878 168.201 292.64 195.054 291.225 202.948C289.858 210.578 289.772 210.482 301.163 214.029C308.345 216.265 312.542 171.263 306.94 152.083C304.657 144.265 304.894 144.373 296.667 147.399ZM72.71 156.868C68.495 177.939 70.756 209.098 76.416 207.961C78.371 207.568 79.029 205.976 78.692 202.454C78.43 199.729 78.216 189.625 78.216 180C78.216 170.375 78.43 160.271 78.692 157.546C79.39 150.263 74.149 149.67 72.71 156.868ZM172.5 155.116C172.5 156.402 171.188 157.707 169.583 158.016C166.71 158.569 165.523 155.033 167.813 152.743C169.56 150.996 172.5 152.485 172.5 155.116ZM281.05 152.983C280.603 153.707 281.048 160.082 282.04 167.149C283.333 176.365 283.333 183.635 282.04 192.851C280.142 206.373 280.414 208.333 284.19 208.333C287.459 208.333 289.167 198.613 289.167 180C289.167 157.256 285.648 145.543 281.05 152.983ZM189.8 166.047C203.236 175.459 196.736 196.667 180.415 196.667C170.231 196.667 163.333 189.936 163.333 180C163.333 166.526 178.824 158.359 189.8 166.047ZM207.5 170.023C207.5 173.595 202.657 173.079 201.955 169.432C201.526 167.205 202.205 166.526 204.432 166.955C206.119 167.28 207.5 168.66 207.5 170.023ZM158.039 190.555C158.351 192.162 157.514 193.333 156.054 193.333C152.958 193.333 151.089 190.616 152.554 188.245C154.062 185.806 157.39 187.207 158.039 190.555ZM193.333 204.068C193.333 207.327 190.103 209.103 188 207C187.06 206.06 186.794 204.475 187.41 203.479C189.044 200.835 193.333 201.262 193.333 204.068ZM86.77 233.234C82.241 236.1 101.856 259.561 118.119 270.73C124.024 274.784 125.51 275.214 126.766 273.23C128.982 269.727 128.799 269.327 123.553 266.228C115.455 261.445 102.48 248.919 96.514 240.126C90.349 231.039 90.297 231.002 86.77 233.234ZM263.486 240.126C257.52 248.919 244.545 261.445 236.447 266.228C231.202 269.326 231.018 269.727 233.23 273.223C234.484 275.204 235.973 274.799 241.929 270.857C257.972 260.241 277.949 236.221 273.223 233.23C269.703 231.003 269.649 231.041 263.486 240.126ZM72.907 240.118L66.648 243.422L69.472 247.961C78.622 262.667 98.006 282.18 111.246 290.014L116.659 293.216L120.195 286.285L123.731 279.353L120.381 276.76C118.539 275.334 112.867 270.969 107.778 267.06C102.689 263.152 94.629 254.714 89.867 248.31C80.086 235.158 81.244 235.717 72.907 240.118ZM270.333 248.194C262.826 258.482 256.011 264.882 240.861 275.872L236.213 279.243L239.872 286.415L243.531 293.587L248.015 290.693C264.604 279.989 280.153 264.444 290.707 248.015L293.587 243.531L286.86 240.099C283.16 238.211 279.82 236.667 279.438 236.667C279.056 236.667 274.958 241.854 270.333 248.194ZM152.233 282.595C149.731 289.114 185.94 292.344 204.664 287.273C212.564 285.133 208.236 280.751 199.12 281.659C187.114 282.856 170.374 282.686 161.189 281.273C154.783 280.289 153.018 280.549 152.233 282.595ZM148.569 293.606C144.377 304.805 144.346 304.685 151.999 306.918C167.337 311.393 215 308.593 215 303.216C215 294.866 210.078 289.949 202.989 291.219C193.484 292.921 165.956 292.853 157.097 291.106C150.601 289.825 149.909 290.028 148.569 293.606Z" fill="#354053"/>
</svg>
