<svg width="25" height="25" viewBox="0 0 25 25" fill="none" xmlns="http://www.w3.org/2000/svg">
<g clip-path="url(#clip0)">
<path d="M24.1198 14.4718C24.8657 8.19371 23.7615 4.23017 21.7698 2.43746L21.7709 2.43642C18.5563 -0.625035 7.70002 -1.07816 3.85419 2.57392C2.12711 4.36038 1.51877 6.98226 1.45211 10.2281C1.38544 13.475 1.30627 19.5573 6.97398 21.2073H6.97919L6.97398 23.727C6.97398 23.727 6.93544 24.7479 7.58752 24.9531C8.33336 25.1948 8.67086 24.7208 10.9906 21.95C14.8698 22.2864 17.849 21.5156 18.1875 21.4031C18.9709 21.1406 23.4032 20.5541 24.1198 14.4718ZM11.3729 20.177C11.3729 20.177 8.91773 23.2385 8.15419 24.0333C7.90419 24.2916 7.63023 24.2677 7.6344 23.7552C7.6344 23.4187 7.65315 19.5718 7.65315 19.5718C2.84794 18.1948 3.13127 13.0156 3.18336 10.3062C3.23544 7.5958 3.73127 5.37601 5.19377 3.88121C8.56773 0.717673 18.0854 1.42496 20.5104 3.70413C23.475 6.33226 22.4198 13.7573 22.4261 14.0104C21.8167 19.0875 18.225 19.4093 17.5646 19.6291C17.2823 19.7229 14.6625 20.3968 11.3729 20.177Z" fill="#354053"/>
<path d="M12.7313 4.47607C12.3302 4.47607 12.3302 5.10107 12.7313 5.10628C15.8427 5.13024 18.4052 7.29899 18.4333 11.2771C18.4333 11.6969 19.0479 11.6917 19.0427 11.2719H19.0417C19.0083 6.98545 16.2104 4.50003 12.7313 4.47607Z" fill="#354053"/>
<path d="M16.824 10.6176C16.8146 11.0322 17.4281 11.052 17.4334 10.6322C17.4844 8.26867 16.0271 6.32179 13.2886 6.11658C12.8875 6.08742 12.8458 6.71762 13.2458 6.74679C15.6208 6.927 16.8719 8.54783 16.824 10.6176Z" fill="#354053"/>
<path d="M16.1677 13.3063C15.6531 13.0084 15.1292 13.1938 14.9125 13.4865L14.4594 14.073C14.2292 14.3709 13.799 14.3313 13.799 14.3313C10.6594 13.5011 9.81979 10.2157 9.81979 10.2157C9.81979 10.2157 9.78125 9.7709 10.0688 9.53236L10.6354 9.06361C10.9188 8.83861 11.0979 8.29694 10.8094 7.76465C10.0385 6.37194 9.52084 5.89173 9.25729 5.52298C8.98021 5.17611 8.56354 5.09798 8.13021 5.33236H8.12083C7.21979 5.85944 6.23333 6.8459 6.54896 7.86153C7.0875 8.93236 8.07708 12.3459 11.2313 14.9251C12.7135 16.1449 15.0594 17.3949 16.0552 17.6834L16.0646 17.698C17.0458 18.0251 18 17.0001 18.5094 16.0719V16.0647C18.7354 15.6157 18.6604 15.1907 18.3302 14.9126C17.7448 14.3417 16.8615 13.7115 16.1677 13.3063Z" fill="#354053"/>
<path d="M13.7177 8.44167C14.7188 8.5 15.2042 9.02292 15.2562 10.0969C15.275 10.5167 15.8844 10.4875 15.8656 10.0677C15.799 8.66563 15.0677 7.88437 13.751 7.81146C13.35 7.7875 13.3125 8.41771 13.7177 8.44167Z" fill="#354053"/>
</g>
<defs>
<clipPath id="clip0">
<rect width="25" height="25" fill="white"/>
</clipPath>
</defs>
</svg>
