<svg width="25" height="21" viewBox="0 0 25 21" xmlns="http://www.w3.org/2000/svg">
<path fill-rule="evenodd" clip-rule="evenodd" d="M19.4893 0.817535C18.7689 1.00232 18.6183 1.06842 18.4945 1.25367C18.4455 1.32699 18.3134 1.39951 18.1082 1.46561C16.3689 2.02627 14.2692 2.90026 12.6324 3.74469C12.2083 3.9635 11.8481 4.14864 11.8321 4.15597C11.816 4.1633 11.7238 3.95205 11.6273 3.68638C11.457 3.21737 11.4469 3.20213 11.2809 3.15837C10.5705 2.97072 7.7913 4.24028 6.85184 5.18152C6.13997 5.89466 5.88539 6.74918 6.12864 7.60919L6.21416 7.91186L5.67614 8.36427C4.50745 9.34697 2.92914 10.9267 1.84995 12.1939C1.46872 12.6416 1.25936 12.8487 1.12044 12.9156C0.965985 12.9899 0.834547 13.1339 0.48498 13.6124C-0.178286 14.52 -0.168239 14.7453 0.558351 15.2597C1.27361 15.766 1.5102 15.7096 2.12159 14.8874L2.47852 14.4073L2.71639 14.4218C3.10872 14.4458 3.30208 14.3295 3.77783 13.7831C4.00565 13.5215 4.37718 13.1088 4.60349 12.8662C5.02503 12.414 5.0963 12.2623 4.94535 12.1394C4.78633 12.0099 4.41095 12.35 3.42849 13.5137C3.07063 13.9376 3.026 13.9719 2.83287 13.9719C2.58612 13.9719 2.63554 13.8409 3.07904 13.3201C6.91598 8.81346 12.5046 5.05275 18.1882 3.15287C18.9998 2.8817 19.0096 2.88067 18.9696 3.07657C18.9244 3.29836 18.8827 3.32242 18.0022 3.63529C13.5368 5.22173 9.67116 7.52682 6.17 10.6905C5.91857 10.9178 5.70068 11.1513 5.68572 11.2095C5.61901 11.4705 5.94171 11.5383 6.16276 11.3096C8.76932 8.61412 13.7753 5.59222 18.2405 4.01918C19.1751 3.68982 19.343 3.56059 19.4269 3.10613L19.4574 2.94036L20.0725 2.78662C20.7922 2.60675 20.9386 2.52416 21.0643 2.22687L21.1564 2.00886L21.0524 1.59071C20.8119 0.623354 20.6185 0.527695 19.4893 0.817535ZM20.4048 1.15251C20.5888 1.28552 20.7273 2.04174 20.5888 2.15767C20.4413 2.28117 19.3394 2.52759 19.0869 2.49357C18.8259 2.4584 18.1664 2.66071 16.6982 3.22619C12.1164 4.99101 7.99062 7.67965 4.45161 11.2069C2.96898 12.6845 2.21085 13.5718 2.21085 13.8294C2.21085 13.9819 1.70484 14.7823 1.41463 15.0889C1.24125 15.272 0.362071 14.6827 0.454837 14.4456C0.544098 14.2175 1.29043 13.2844 1.38413 13.2839C1.52106 13.283 1.53391 13.2716 1.88208 12.8492C5.95643 7.90476 11.7584 4.00154 18.0916 1.94448C18.6237 1.7716 18.7685 1.70676 18.7994 1.62703C18.8959 1.37808 20.1884 0.996137 20.4048 1.15251ZM11.2596 3.97989L11.4056 4.38933L10.7327 4.78434C9.52734 5.49187 8.12545 6.43379 7.0424 7.2639L6.60135 7.60197L6.54901 7.47607C6.36768 7.04051 6.5344 6.26573 6.91704 5.7667C7.40353 5.13214 8.97588 4.19309 10.2724 3.76279C11.111 3.48441 11.0805 3.47776 11.2596 3.97989ZM22.7269 5.5346C22.0105 5.72844 21.9351 5.76177 21.7841 5.95069C21.6943 6.06307 21.541 6.13158 20.9046 6.34352C19.3381 6.865 17.7834 7.51582 16.1492 8.33402C15.5938 8.61206 15.1238 8.83958 15.1049 8.83958C15.0858 8.83958 15.0037 8.64368 14.9224 8.40413C14.6887 7.71653 14.3685 7.66704 13.1611 8.13216C10.2792 9.24238 8.99142 10.6571 9.40817 12.255C9.45981 12.4528 9.4861 12.6286 9.46658 12.6455C9.44707 12.6624 9.16831 12.9 8.84701 13.1736C7.54619 14.2809 5.37132 16.5098 4.6785 17.4457C4.64508 17.4909 4.55208 17.554 4.47194 17.586C4.27752 17.6633 4.11513 17.8394 3.69067 18.4321C3.15966 19.1738 3.1565 19.4308 3.67326 19.8374C4.51435 20.4991 4.7979 20.4504 5.45673 19.5306L5.78164 19.0769L6.0423 19.0953C6.44304 19.1238 6.57483 19.045 7.07324 18.48C7.31497 18.2059 7.69737 17.781 7.92286 17.5357C8.34988 17.0715 8.36391 17.047 8.28458 16.9017C8.14905 16.6535 7.92286 16.8349 6.88175 18.0274C6.38416 18.5972 6.24875 18.7074 6.07583 18.6833C5.84076 18.6503 5.94007 18.4897 6.76503 17.5692C10.7144 13.1623 15.9269 9.72571 21.5275 7.83625C22.3458 7.56016 22.2595 7.57207 22.2595 7.73475C22.2595 7.96651 22.1352 8.04292 21.2531 8.35384C16.9399 9.87395 13.0912 12.1568 9.61192 15.2588C8.97202 15.8294 8.90625 15.9199 9.01841 16.0769C9.1294 16.2323 9.25897 16.188 9.58762 15.8819C12.921 12.7775 17.3189 10.1453 21.58 8.70463C22.417 8.42166 22.5836 8.30068 22.687 7.90018C22.7196 7.77416 22.7499 7.66498 22.7542 7.65754C22.7585 7.6502 23.043 7.57081 23.3862 7.48134C24.4272 7.20983 24.5605 7.00706 24.296 6.0979C24.0711 5.32507 23.8262 5.2372 22.7269 5.5346ZM23.8319 6.13593C24.0721 6.85011 24.0576 6.86993 23.1353 7.09424C22.5764 7.23022 22.4773 7.24282 22.3782 7.19081C22.2761 7.13731 22.1753 7.1608 21.4125 7.41593C17.5889 8.695 14.0621 10.6147 10.7631 13.2125C8.5915 14.9226 5.42787 18.1219 5.50346 18.5317C5.53431 18.6987 4.81531 19.7375 4.61751 19.8115C4.41924 19.8858 3.75306 19.4265 3.75306 19.2157C3.75306 19.0099 4.52323 18.0153 4.72815 17.9565C4.86228 17.918 4.96953 17.8181 5.23813 17.4812C8.99154 12.7734 15.2722 8.57941 21.5516 6.58765C21.9704 6.45476 22.0449 6.41569 22.1066 6.29655C22.1459 6.22082 22.1838 6.1522 22.1911 6.14407C22.2384 6.09022 23.3932 5.82146 23.5447 5.82891C23.7314 5.83807 23.7318 5.83853 23.8319 6.13593ZM14.4316 8.36988C14.5618 8.68355 14.6833 9.09139 14.654 9.11556C14.6345 9.13148 14.3242 9.31581 13.9643 9.52512C12.8244 10.188 11.4181 11.1341 10.3275 11.9718C9.81744 12.3637 9.80505 12.357 9.80505 11.6875C9.80505 11.0681 9.97913 10.6664 10.4524 10.1934C11.3221 9.32406 14.2674 7.97441 14.4316 8.36988Z" />
</svg>
