<svg width="280" height="123" viewBox="0 0 280 123" fill="none" xmlns="http://www.w3.org/2000/svg">
<path d="M164.246 106.19V108.171L45 107.378L164.246 106.19Z" fill="#ED2228"/>
<path d="M164.246 112.321V114.302L79.8625 113.509L164.246 112.321Z" fill="#ED2228"/>
<path d="M164.246 118.452V120.433L110.764 119.64L164.246 118.452Z" fill="#ED2228"/>
<path d="M166.892 121.19V105.57H172.92C174.387 105.57 175.582 106.039 176.506 106.978C177.43 107.917 177.892 109.141 177.892 110.652C177.892 112.163 177.43 113.402 176.506 114.37C175.582 115.323 174.387 115.8 172.92 115.8H169.73V121.19H166.892ZM169.73 113.336H172.392C173.213 113.336 173.851 113.094 174.306 112.61C174.775 112.126 175.01 111.473 175.01 110.652C175.01 109.845 174.775 109.207 174.306 108.738C173.851 108.254 173.228 108.012 172.436 108.012H169.73V113.336ZM178.887 121.19V105.57H181.725V121.19H178.887ZM183.964 121.19V105.57H193.314V108.012H186.802V112.104H192.06V114.546H186.802V118.748H193.666V121.19H183.964ZM193.806 119.32L195.346 117.186C195.86 117.641 196.461 118.029 197.15 118.352C197.854 118.675 198.544 118.836 199.218 118.836C199.922 118.836 200.48 118.675 200.89 118.352C201.301 118.015 201.506 117.582 201.506 117.054C201.506 116.511 201.257 116.042 200.758 115.646C200.26 115.25 199.651 114.905 198.932 114.612C198.228 114.319 197.517 113.996 196.798 113.644C196.08 113.292 195.471 112.793 194.972 112.148C194.474 111.503 194.224 110.733 194.224 109.838C194.224 108.489 194.723 107.396 195.72 106.56C196.732 105.724 198.008 105.306 199.548 105.306C201.382 105.306 202.907 105.863 204.124 106.978L202.87 109.288C202.43 108.892 201.895 108.569 201.264 108.32C200.648 108.056 200.04 107.924 199.438 107.924C198.72 107.924 198.14 108.085 197.7 108.408C197.275 108.731 197.062 109.163 197.062 109.706C197.062 110.234 197.312 110.689 197.81 111.07C198.309 111.451 198.91 111.781 199.614 112.06C200.333 112.339 201.052 112.654 201.77 113.006C202.489 113.343 203.098 113.835 203.596 114.48C204.095 115.125 204.344 115.91 204.344 116.834C204.344 118.154 203.882 119.254 202.958 120.134C202.034 121.014 200.766 121.454 199.152 121.454C198.155 121.454 197.187 121.271 196.248 120.904C195.31 120.537 194.496 120.009 193.806 119.32ZM205.634 121.19V105.57H214.984V108.012H208.472V112.104H213.73V114.546H208.472V118.748H215.336V121.19H205.634ZM218.176 121.19L223.654 105.57H226.646L232.124 121.19H229.22L227.878 117.186H222.4L221.08 121.19H218.176ZM223.104 114.876H227.174L225.788 110.696L225.172 108.276H225.128C224.894 109.303 224.688 110.109 224.512 110.696L223.104 114.876ZM232.227 115.58V105.57H235.065V115.558C235.065 116.599 235.373 117.413 235.989 118C236.62 118.572 237.463 118.858 238.519 118.858C239.575 118.858 240.411 118.572 241.027 118C241.658 117.413 241.973 116.599 241.973 115.558V105.57H244.811V115.58C244.811 117.325 244.232 118.741 243.073 119.826C241.929 120.911 240.418 121.454 238.541 121.454C236.649 121.454 235.124 120.911 233.965 119.826C232.806 118.741 232.227 117.325 232.227 115.58ZM250.411 121.19V108.012H245.285V105.57H258.353V108.012H253.227V121.19H250.411ZM257.532 113.27C257.532 111.011 258.287 109.119 259.798 107.594C261.323 106.069 263.259 105.306 265.606 105.306C267.952 105.306 269.881 106.069 271.392 107.594C272.917 109.119 273.68 111.011 273.68 113.27C273.68 115.587 272.917 117.531 271.392 119.1C269.881 120.669 267.952 121.454 265.606 121.454C263.259 121.454 261.323 120.669 259.798 119.1C258.287 117.531 257.532 115.587 257.532 113.27ZM260.458 113.27C260.458 114.869 260.942 116.203 261.91 117.274C262.892 118.33 264.124 118.858 265.606 118.858C267.087 118.858 268.312 118.33 269.28 117.274C270.262 116.203 270.754 114.869 270.754 113.27C270.754 111.745 270.262 110.469 269.28 109.442C268.312 108.415 267.087 107.902 265.606 107.902C264.124 107.902 262.892 108.415 261.91 109.442C260.942 110.469 260.458 111.745 260.458 113.27Z" fill="#222222"/>
<path d="M22 72.1891C18.9677 72.1891 16.5 74.6568 16.5 77.6891C16.5 80.7214 18.9677 83.1891 22 83.1891C22 81.5 22 80.5323 22 77.5C22 74.4677 22 75.5 22 72.1891Z" fill="#14243B"/>
<path d="M22 87.1532V68.8468V60.5C22 59.5 22 57 22 56H20.5603C19.6821 56 18.9268 56.6233 18.76 57.4868L18.1568 60.6218C17.9533 61.6833 17.264 62.5303 16.2648 62.9428C15.2656 63.359 14.1766 63.2471 13.282 62.6403L10.6383 60.851C9.91411 60.3597 8.9388 60.4513 8.3155 61.0728L5.0247 64.3637C4.38489 65.0017 4.306 66.0137 4.84139 66.7415L6.36489 68.8223C7.0212 69.7133 7.1642 70.8151 6.75909 71.8473C6.35389 72.874 5.50139 73.5853 4.41239 73.7925L1.98689 74.26C1.1233 74.4268 0.5 75.1822 0.5 76.0603V80.7133C0.5 81.619 1.16 82.389 2.0547 82.5265L4.59939 82.9188C5.69389 83.0856 6.57389 83.7658 7.01759 84.7796C7.45939 85.7934 7.35678 86.8989 6.73528 87.8156L5.35109 89.8616C4.85789 90.5876 4.95139 91.5629 5.57289 92.1844L8.8637 95.4752C9.5035 96.1169 10.5137 96.1902 11.2415 95.6585L13.3223 94.135C14.2133 93.4805 15.3133 93.3393 16.3473 93.7408C17.374 94.146 18.0853 94.9985 18.2925 96.0875L18.76 98.513C18.9268 99.3767 19.6822 100 20.5603 100H22C22 99 22 87.1532 22 87.1532ZM22 87.1532C22.1656 87.1622 21.8323 87.1532 22 87.1532C17.1771 86.8927 13.3333 82.8868 13.3333 78C13.3333 73.1132 17.1771 69.1073 22 68.8468V87.1532Z" fill="#ED2228"/>
<path d="M23.712 56.057H39.488C43.2507 56.057 46.2427 56.4423 48.464 57.213C50.504 57.9383 51.864 58.845 52.544 59.933C53.2693 61.021 53.632 62.517 53.632 64.421V70.337C53.632 72.105 53.1333 73.4877 52.136 74.485C51.1387 75.437 49.62 76.1397 47.58 76.593V76.865C49.9827 77.273 51.9093 78.1117 53.36 79.381C54.856 80.605 55.604 82.1463 55.604 84.005V91.417C55.604 94.6357 54.4027 96.9023 52 98.217C49.5973 99.5317 45.5853 100.189 39.964 100.189H23.712V56.057ZM39.692 75.369C42.4573 75.369 44.4293 74.961 45.608 74.145C46.832 73.2837 47.444 71.9463 47.444 70.133V64.965C47.444 63.2877 46.832 62.109 45.608 61.429C44.384 60.749 42.344 60.409 39.488 60.409H30.308V75.369H39.692ZM39.964 95.633C43.2733 95.633 45.608 95.293 46.968 94.613C48.328 93.933 49.008 92.777 49.008 91.145V84.481C49.008 83.3023 48.7587 82.373 48.26 81.693C47.8067 80.9677 47.0813 80.4463 46.084 80.129C45.0867 79.857 44.2027 79.6983 43.432 79.653C42.6613 79.5623 41.5053 79.517 39.964 79.517H30.308V95.633H39.964ZM65.4151 56.057H80.9191C84.8178 56.057 87.8551 56.3063 90.0311 56.805C92.2525 57.2583 93.8618 58.097 94.8591 59.321C95.9018 60.545 96.4231 62.3357 96.4231 64.693V72.309C96.4231 74.9383 95.3351 76.9783 93.1591 78.429C91.0285 79.8343 88.3085 80.537 84.9991 80.537L99.1431 100.189H91.0511L78.4031 81.353H72.0111V100.189H65.4151V56.057ZM80.6471 77.001C83.9111 77.001 86.2458 76.6157 87.6511 75.845C89.1018 75.029 89.8271 73.5783 89.8271 71.493V65.373C89.8271 62.0637 86.9711 60.409 81.2591 60.409H72.0111V77.001H80.6471ZM108.38 56.057H114.976V100.189H108.38V56.057ZM143.648 100.869C131.317 100.869 125.152 96.8797 125.152 88.901V68.025C125.152 59.593 131.317 55.377 143.648 55.377C156.115 55.377 162.348 59.5703 162.348 67.957V88.901C162.348 93.1623 160.625 96.2223 157.18 98.081C153.735 99.9397 149.224 100.869 143.648 100.869ZM143.784 96.449C151.899 96.449 155.956 93.9103 155.956 88.833V67.821C155.956 62.381 151.876 59.661 143.716 59.661C139.772 59.661 136.735 60.273 134.604 61.497C132.519 62.721 131.476 64.829 131.476 67.821V88.833C131.476 93.9103 135.579 96.449 143.784 96.449ZM172.528 56.057H180.484L204.488 92.505V56.057H210.268V100.189H202.312L178.308 63.129V100.189H172.528V56.057ZM221.669 56.057H228.265V100.189H221.669V56.057ZM250.749 77.681L235.177 56.057H242.725L254.489 73.125L266.253 56.057H273.801L258.229 77.681L274.481 100.189H266.933L254.489 82.237L242.045 100.189H234.497L250.749 77.681Z" fill="#354053"/>
<path d="M4 32.5309V24.189C11.5 23.189 7.5 25.2903 26.1747 17.7205C53.9758 5.54305 72.5098 1.92284 86.7414 0.606364C100.311 -0.648899 131 -0.811035 157.568 8.83425C175.44 14.6046 189.341 26.6069 193.312 29.8981C202 30.689 208.537 30.2272 214.825 30.5563C252.555 33.1893 271.089 47.9339 274.068 50.3035C278 53.689 281.383 58.032 279 56.189C276.021 53.8851 250.9 39.1133 208.537 38.126C166.173 38.126 176.433 42.7338 135.393 42.0755C100.311 40.759 73.8337 24.632 80.453 27.9232C86.4104 30.2271 151 41.189 181.397 29.5689C160.547 17.0623 147.209 11.8857 115.5 8.83425C83.7911 5.78275 49.0113 25.9485 49.3423 28.2524C50.9971 29.898 60.2641 47.9996 59.6022 47.0122C48.6803 32.5309 35.1108 24.6067 32.1321 25.2903C28.1605 26.2017 11.3916 30.3368 4 32.5309Z" fill="url(#paint0_radial)"/>
<defs>
<radialGradient id="paint0_radial" cx="0" cy="0" r="1" gradientUnits="userSpaceOnUse" gradientTransform="translate(265 38.1889) rotate(-175.577) scale(90.7703 487.38)">
<stop stop-color="#A1060C"/>
<stop offset="1" stop-color="#ED2228"/>
</radialGradient>
</defs>
</svg>
