<svg width="280" height="123" viewBox="0 0 280 123" fill="none" xmlns="http://www.w3.org/2000/svg">
<path d="M163.746 106.19V108.171L44.5 107.378L163.746 106.19Z" fill="#ED2228"/>
<path d="M163.746 112.321V114.302L79.3627 113.509L163.746 112.321Z" fill="#ED2228"/>
<path d="M163.746 118.452V120.433L110.264 119.64L163.746 118.452Z" fill="#ED2228"/>
<path d="M166.392 121.19V105.57H172.42C173.887 105.57 175.082 106.039 176.006 106.978C176.93 107.917 177.392 109.141 177.392 110.652C177.392 112.163 176.93 113.402 176.006 114.37C175.082 115.323 173.887 115.8 172.42 115.8H169.23V121.19H166.392ZM169.23 113.336H171.892C172.713 113.336 173.351 113.094 173.806 112.61C174.275 112.126 174.51 111.473 174.51 110.652C174.51 109.845 174.275 109.207 173.806 108.738C173.351 108.254 172.728 108.012 171.936 108.012H169.23V113.336ZM178.387 121.19V105.57H181.225V121.19H178.387ZM183.464 121.19V105.57H192.814V108.012H186.302V112.104H191.56V114.546H186.302V118.748H193.166V121.19H183.464ZM193.306 119.32L194.846 117.186C195.36 117.641 195.961 118.029 196.65 118.352C197.354 118.675 198.044 118.836 198.718 118.836C199.422 118.836 199.98 118.675 200.39 118.352C200.801 118.015 201.006 117.582 201.006 117.054C201.006 116.511 200.757 116.042 200.258 115.646C199.76 115.25 199.151 114.905 198.432 114.612C197.728 114.319 197.017 113.996 196.298 113.644C195.58 113.292 194.971 112.793 194.472 112.148C193.974 111.503 193.724 110.733 193.724 109.838C193.724 108.489 194.223 107.396 195.22 106.56C196.232 105.724 197.508 105.306 199.048 105.306C200.882 105.306 202.407 105.863 203.624 106.978L202.37 109.288C201.93 108.892 201.395 108.569 200.764 108.32C200.148 108.056 199.54 107.924 198.938 107.924C198.22 107.924 197.64 108.085 197.2 108.408C196.775 108.731 196.562 109.163 196.562 109.706C196.562 110.234 196.812 110.689 197.31 111.07C197.809 111.451 198.41 111.781 199.114 112.06C199.833 112.339 200.552 112.654 201.27 113.006C201.989 113.343 202.598 113.835 203.096 114.48C203.595 115.125 203.844 115.91 203.844 116.834C203.844 118.154 203.382 119.254 202.458 120.134C201.534 121.014 200.266 121.454 198.652 121.454C197.655 121.454 196.687 121.271 195.748 120.904C194.81 120.537 193.996 120.009 193.306 119.32ZM205.134 121.19V105.57H214.484V108.012H207.972V112.104H213.23V114.546H207.972V118.748H214.836V121.19H205.134ZM217.676 121.19L223.154 105.57H226.146L231.624 121.19H228.72L227.378 117.186H221.9L220.58 121.19H217.676ZM222.604 114.876H226.674L225.288 110.696L224.672 108.276H224.628C224.394 109.303 224.188 110.109 224.012 110.696L222.604 114.876ZM231.727 115.58V105.57H234.565V115.558C234.565 116.599 234.873 117.413 235.489 118C236.12 118.572 236.963 118.858 238.019 118.858C239.075 118.858 239.911 118.572 240.527 118C241.158 117.413 241.473 116.599 241.473 115.558V105.57H244.311V115.58C244.311 117.325 243.732 118.741 242.573 119.826C241.429 120.911 239.918 121.454 238.041 121.454C236.149 121.454 234.624 120.911 233.465 119.826C232.306 118.741 231.727 117.325 231.727 115.58ZM249.911 121.19V108.012H244.785V105.57H257.853V108.012H252.727V121.19H249.911ZM257.032 113.27C257.032 111.011 257.787 109.119 259.298 107.594C260.823 106.069 262.759 105.306 265.106 105.306C267.452 105.306 269.381 106.069 270.892 107.594C272.417 109.119 273.18 111.011 273.18 113.27C273.18 115.587 272.417 117.531 270.892 119.1C269.381 120.669 267.452 121.454 265.106 121.454C262.759 121.454 260.823 120.669 259.298 119.1C257.787 117.531 257.032 115.587 257.032 113.27ZM259.958 113.27C259.958 114.869 260.442 116.203 261.41 117.274C262.392 118.33 263.624 118.858 265.106 118.858C266.587 118.858 267.812 118.33 268.78 117.274C269.762 116.203 270.254 114.869 270.254 113.27C270.254 111.745 269.762 110.469 268.78 109.442C267.812 108.415 266.587 107.902 265.106 107.902C263.624 107.902 262.392 108.415 261.41 109.442C260.442 110.469 259.958 111.745 259.958 113.27Z" fill="#F6F6F6"/>
<path d="M21.5 72.1891C18.4677 72.1891 16 74.6568 16 77.6891C16 80.7214 18.4677 83.1891 21.5 83.1891C21.5 81.5 21.5 80.5323 21.5 77.5C21.5 74.4677 21.5 75.5 21.5 72.1891Z" fill="#14243B"/>
<path d="M21.5 87.1532V68.8468V60.5C21.5 59.5 21.5 57 21.5 56H20.0603C19.1821 56 18.4268 56.6233 18.26 57.4868L17.6568 60.6218C17.4533 61.6833 16.764 62.5303 15.7648 62.9428C14.7656 63.359 13.6766 63.2471 12.782 62.6403L10.1383 60.851C9.41411 60.3597 8.4388 60.4513 7.8155 61.0728L4.5247 64.3637C3.88489 65.0017 3.806 66.0137 4.34139 66.7415L5.86489 68.8223C6.5212 69.7133 6.6642 70.8151 6.25909 71.8473C5.85389 72.874 5.00139 73.5853 3.91239 73.7925L1.48689 74.26C0.623305 74.4268 0 75.1822 0 76.0603V80.7133C0 81.619 0.66 82.389 1.5547 82.5265L4.09939 82.9188C5.19389 83.0856 6.07389 83.7658 6.51759 84.7796C6.95939 85.7934 6.85678 86.8989 6.23528 87.8156L4.85109 89.8616C4.35789 90.5876 4.45139 91.5629 5.07289 92.1844L8.3637 95.4752C9.0035 96.1169 10.0137 96.1902 10.7415 95.6585L12.8223 94.135C13.7133 93.4805 14.8133 93.3393 15.8473 93.7408C16.874 94.146 17.5853 94.9985 17.7925 96.0875L18.26 98.513C18.4268 99.3767 19.1822 100 20.0603 100H21.5C21.5 99 21.5 87.1532 21.5 87.1532ZM21.5 87.1532C21.6656 87.1622 21.3323 87.1532 21.5 87.1532C16.6771 86.8927 12.8333 82.8868 12.8333 78C12.8333 73.1132 16.6771 69.1073 21.5 68.8468V87.1532Z" fill="#ED2228"/>
<path d="M23.212 56.057H38.988C42.7507 56.057 45.7427 56.4423 47.964 57.213C50.004 57.9383 51.364 58.845 52.044 59.933C52.7693 61.021 53.132 62.517 53.132 64.421V70.337C53.132 72.105 52.6333 73.4877 51.636 74.485C50.6387 75.437 49.12 76.1397 47.08 76.593V76.865C49.4827 77.273 51.4093 78.1117 52.86 79.381C54.356 80.605 55.104 82.1463 55.104 84.005V91.417C55.104 94.6357 53.9027 96.9023 51.5 98.217C49.0973 99.5317 45.0853 100.189 39.464 100.189H23.212V56.057ZM39.192 75.369C41.9573 75.369 43.9293 74.961 45.108 74.145C46.332 73.2837 46.944 71.9463 46.944 70.133V64.965C46.944 63.2877 46.332 62.109 45.108 61.429C43.884 60.749 41.844 60.409 38.988 60.409H29.808V75.369H39.192ZM39.464 95.633C42.7733 95.633 45.108 95.293 46.468 94.613C47.828 93.933 48.508 92.777 48.508 91.145V84.481C48.508 83.3023 48.2587 82.373 47.76 81.693C47.3067 80.9677 46.5813 80.4463 45.584 80.129C44.5867 79.857 43.7027 79.6983 42.932 79.653C42.1613 79.5623 41.0053 79.517 39.464 79.517H29.808V95.633H39.464ZM64.9151 56.057H80.4191C84.3178 56.057 87.3551 56.3063 89.5311 56.805C91.7525 57.2583 93.3618 58.097 94.3591 59.321C95.4018 60.545 95.9231 62.3357 95.9231 64.693V72.309C95.9231 74.9383 94.8351 76.9783 92.6591 78.429C90.5285 79.8343 87.8085 80.537 84.4991 80.537L98.6431 100.189H90.5511L77.9031 81.353H71.5111V100.189H64.9151V56.057ZM80.1471 77.001C83.4111 77.001 85.7458 76.6157 87.1511 75.845C88.6018 75.029 89.3271 73.5783 89.3271 71.493V65.373C89.3271 62.0637 86.4711 60.409 80.7591 60.409H71.5111V77.001H80.1471ZM107.88 56.057H114.476V100.189H107.88V56.057ZM143.148 100.869C130.817 100.869 124.652 96.8797 124.652 88.901V68.025C124.652 59.593 130.817 55.377 143.148 55.377C155.615 55.377 161.848 59.5703 161.848 67.957V88.901C161.848 93.1623 160.125 96.2223 156.68 98.081C153.235 99.9397 148.724 100.869 143.148 100.869ZM143.284 96.449C151.399 96.449 155.456 93.9103 155.456 88.833V67.821C155.456 62.381 151.376 59.661 143.216 59.661C139.272 59.661 136.235 60.273 134.104 61.497C132.019 62.721 130.976 64.829 130.976 67.821V88.833C130.976 93.9103 135.079 96.449 143.284 96.449ZM172.028 56.057H179.984L203.988 92.505V56.057H209.768V100.189H201.812L177.808 63.129V100.189H172.028V56.057ZM221.169 56.057H227.765V100.189H221.169V56.057ZM250.249 77.681L234.677 56.057H242.225L253.989 73.125L265.753 56.057H273.301L257.729 77.681L273.981 100.189H266.433L253.989 82.237L241.545 100.189H233.997L250.249 77.681Z" fill="#F6F6F6"/>
<path d="M3.5 32.5309V24.189C11 23.189 7 25.2903 25.6747 17.7205C53.4758 5.54305 72.0098 1.92284 86.2414 0.606364C99.8109 -0.648899 130.5 -0.811035 157.068 8.83425C174.94 14.6046 188.841 26.6069 192.812 29.8981C201.5 30.689 208.037 30.2272 214.325 30.5563C252.055 33.1893 270.589 47.9339 273.568 50.3035C277.5 53.689 280.883 58.032 278.5 56.189C275.521 53.8851 250.4 39.1133 208.037 38.126C165.673 38.126 175.933 42.7338 134.893 42.0755C99.8109 40.759 73.3337 24.632 79.953 27.9232C85.9104 30.2271 150.5 41.189 180.897 29.5689C160.047 17.0623 146.709 11.8857 115 8.83425C83.2911 5.78275 48.5113 25.9485 48.8423 28.2524C50.4971 29.898 59.7641 47.9996 59.1022 47.0122C48.1803 32.5309 34.6108 24.6067 31.6321 25.2903C27.6605 26.2017 10.8916 30.3368 3.5 32.5309Z" fill="url(#paint0_radial)"/>
<defs>
<radialGradient id="paint0_radial" cx="0" cy="0" r="1" gradientUnits="userSpaceOnUse" gradientTransform="translate(264.5 38.1889) rotate(-175.577) scale(90.7703 487.38)">
<stop stop-color="#A1060C"/>
<stop offset="1" stop-color="#ED2228"/>
</radialGradient>
</defs>
</svg>
